<?xml version="1.0" encoding="UTF-8"?>
<!-- Created with EazyDraw for Mac ( http://www.eazydraw.com/ ) -->

<svg
    version="1.1"
    xmlns:dc="http://purl.org/dc/elements/1.1/"
    xmlns:cc="http://creativecommons.org/ns#"
    xmlns:rdf="http://www.w3.org/1999/02/22-rdf-syntax-ns#"
    xmlns:svg="http://www.w3.org/2000/svg"
    xmlns:xlink="http://www.w3.org/1999/xlink"
    xmlns="http://www.w3.org/2000/svg"
    width="84.4318038148"
    height="96.113"
    viewBox="0, 0, 84.4318038148, 96.113"
    preserveAspectRatio="none"
    id="svg2">
   <defs
       id="defs_32F34BAB">
      <marker
          orient="auto"
          refX="0.0"
          refY="0.0"
          id="6D48179B_end_arrow"
          style="overflow:visible"
          markerUnits="userSpaceOnUse">
         <path
             id="6D48179B_end_arrow_path"
             style="fill:#4F9ACE;fill-opacity:1;stroke:#4F9ACE;stroke-opacity:1;fill-rule:nonzero;stroke-linecap:square;stroke-linejoin:miter;stroke-width:0.910888671875;stroke-miterlimit:10"
             d="M0,0 L-7.517540966287,2.736161146605 L-7.517540966287,-2.736161146605 z"/>
      </marker>
   </defs>
   <metadata
       id="metadata7">
      <rdf:RDF>
         <cc:Work
             rdf:about="">
            <dc:format>image/svg+xml</dc:format>
            <dc:type rdf:resource="http://purl.org/dc/dcmitype/StillImage"/>
            <dc:title></dc:title>
         </cc:Work>
      </rdf:RDF>
   </metadata>
   <g
       id="layer_Paper"
       style="fill:#000000;fill-opacity:1;stroke:#000000;stroke-opacity:1;fill-rule:nonzero;stroke-linecap:square;stroke-linejoin:miter;stroke-width:1;stroke-miterlimit:10">
      <path
          style="fill:#D0D0D0;stroke:#57A1DD;stroke-linecap:butt;stroke-width:4;stroke-miterlimit:4"
          id="72B6309B"
          d="M79.0471679687,48.216 C77.1101679687,57.254 69.7891679687,63.328 67.1561679687,66.979 C66.0101679688,68.568 65.1811679688,69.716 64.8421679687,70.655 C63.6901679687,73.846 64.0271679688,87.839 64.1581679687,92.065
L30.5351679688,92.065 L30.4651679687,87.05 C30.3071679687,80.521 22.4881679687,80.521 19.1491679687,80.521 L17.7901679687,80.529 C17.4271679687,80.532 17.0701679687,80.541 16.7181679687,80.55 C16.3281679688,80.561 15.9451679687,80.571 15.5691679687,80.571
C13.9281679687,80.571 12.6931679687,80.372 11.6011679687,79.383 C10.1231679688,78.044 10.1031679688,75.165 10.1031679688,75.152 L10.3781679687,58.325 C10.3821679687,58.044 10.2691679687,57.774 10.0641679687,57.581
C9.86016796869,57.389 9.587167968731,57.292 9.303167968692,57.311 C8.052167968699,57.406 6.916167968707,57.264 5.800167968719,56.912 C4.570167968766,56.522 3.799167968703,55.257 4.044167968689,54.03 C4.429167968702,52.105 5.714167968727,50.188 7.074167968745,48.159
C8.657167968754,45.798 10.4501679688,43.122 11.1671679687,39.889 C12.0181679687,36.055 12.0161679687,33.595 11.1271679687,32.723 C11.3851679688,17.864 22.9151679688,5.680999999973 39.6661679687,4.225000000027
C40.5141679687,3.433000000019 41.4211679687,2.706999999996 42.3791679688,2.05 C42.0941679688,2.057000000035 41.8191679687,2.05599999999 41.5311679687,2.065999999974 L41.5321679687,2.100000000011 C22.5241679688,2.793999999993 9.123167968738,16.459 9.123167968738,33.163
C9.123167968738,33.469 9.268167968706,33.762 9.508167968752,33.951 C9.610167968763,34.032 9.989167968719,35.96 9.215167968708,39.454 C8.579167968731,42.319 6.970167968741,44.722 5.413167968714,47.044 C3.93916796873,49.243 2.547167968753,51.32 2.083167968761,53.636
C1.640167968729,55.848 3.008167968717,58.123 5.197167968737,58.817 C6.218167968727,59.14 7.282167968753,59.314 8.361167968762,59.335 L8.103167968704,75.132 C8.103167968704,75.285 8.116167968695,78.925 10.2581679687,80.865
C11.9121679687,82.363 13.7881679688,82.57 15.5691679687,82.57 C15.9621679687,82.57 16.3621679687,82.559 16.7701679688,82.549 C17.1101679687,82.54 17.4561679687,82.531 17.8061679687,82.528 L19.1501679687,82.52
C23.9311679687,82.52 28.3691679687,83.075 28.4661679688,87.087 L28.5491679687,93.077 C28.5571679687,93.624 29.0021679687,94.063 29.5491679688,94.063 L65.1921679688,94.063 C65.4631679687,94.063 65.7231679687,93.953 65.9121679687,93.757
C66.1011679687,93.561 66.2021679687,93.298 66.1921679687,93.027 C66.0091679687,87.91 65.7481679687,74.035 66.7241679688,71.333 C66.9681679687,70.658 67.7671679687,69.55 68.7791679687,68.147 C71.5671679687,64.282 79.2171679687,57.802 81.1281679688,48.063
C81.1281679688,48.063 81.8331679688,44.407 82.1331679687,40.279 C81.4641679688,40.611 80.7621679687,40.894 80.0441679687,41.149 C79.8641679687,44.158 79.0471679687,48.216 79.0471679687,48.216 z"/>
      <path
          style="fill:none;stroke:#4F9ACE;stroke-width:3.6435546875;marker-end:url(#6D48179B_end_arrow)"
          id="6D48179B"
          d="M70.6219804687,47.704625 C78.9797998895,35.8095875121 74.8070095936,18.3809360758 63.1534073417,11.6595934304 C51.8342018931,4.230765575509 35.7808796597,8.583866034742 29.8337979609,19.5449142576 C23.2251153585,30.2200023579 27.6163853065,44.9465866558 37.8402197369,50.2143998664
C47.8200582107,56.0966679019 61.2670755615,51.7813400163 65.9347885852,42.326668514 C71.1692409352,33.0793851249 67.019139068,20.868497811 58.3554805711,16.736906495 C49.866926002,12.0863454858 38.8538943794,16.0038108048 35.2087098552,23.8626513968
C31.092000414,31.575288734 34.7286037794,41.4228379819 41.7752763355,44.6181878357 C48.7021070308,48.2382183311 57.4104319726,44.9139499845 60.1806211116,38.6815599164 C63.3294452783,32.5444409696 60.3344378015,24.9550268858 54.914143253,22.5959050397
C49.5656840773,19.9032548199 43.0803730748,22.5646083826 41.1274517005,27.1785677141 C38.8850729809,31.7435591839 41.219048745,37.1346794914 45.0354149611,38.6784039443 C48.8255952612,40.4686130319 53.1282431358,38.4468214737 54.2532634041,35.4168394612
C55.5829284753,32.3899431939 53.8508847388,29.1735173691 51.59409986,28.4818935548 C49.3166521081,27.6263227463 47.1869679849,29.0966704952 46.9473312732,30.5949206309 C46.5833194204,32.1384926234 47.8240346802,33.1787728863 48.5793396425,32.9451711059
C49.0397168315,32.8568928468 49.2789162253,32.4441857024 49.1649492187,32.12259375 L49.1649492187,32.12259375"/>
   </g>
</svg>
