<?xml version="1.0" encoding="UTF-8" standalone="no"?> <!-- Created with Vectornator for iOS (http://vectornator.io/) --><!DOCTYPE svg PUBLIC "-//W3C//DTD SVG 1.1//EN" "http://www.w3.org/Graphics/SVG/1.1/DTD/svg11.dtd">
<svg style="fill-rule:evenodd;clip-rule:evenodd;stroke-linecap:round;stroke-linejoin:round;" xmlns:vectornator="http://vectornator.io" xmlns:xlink="http://www.w3.org/1999/xlink" xmlns="http://www.w3.org/2000/svg" xml:space="preserve" version="1.1" viewBox="0 0 666.225 326.025">
<metadata>
<vectornator:setting key="DynamicGuides" value="0"/>
<vectornator:setting key="SnapToPoints" value="0"/>
<vectornator:setting key="OutlineMode" value="0"/>
<vectornator:setting key="RulersVisible" value="1"/>
<vectornator:setting key="CMYKEnabledKey" value="0"/>
<vectornator:setting key="SnapToEdges" value="0"/>
<vectornator:setting key="DisplayWhiteBackground" value="0"/>
<vectornator:setting key="ShowGrid" value="0"/>
<vectornator:setting key="SnapToGuides" value="1"/>
<vectornator:setting key="GridSpacing" value="36"/>
<vectornator:setting key="IsolateActiveLayer" value="0"/>
<vectornator:setting key="Units" value="Centimeters"/>
<vectornator:setting key="SnapToGrid" value="0"/>
</metadata>
<defs/>
<g id="Layer 1" vectornator:layerName="Layer 1">
<g opacity="1">
<path vectornator:shadowColor="#162118" vectornator:shadowOpacity="0.333" vectornator:shadowRadius="6.75847" d="M715.608+755.59C729.821+755.945+743.702+754.989+757.079+752.856" vectornator:shadowOffset="6.47562" fill="#ecf4f4" opacity="1" vectornator:shadowAngle="0.414946"/>
<path stroke="#000000" stroke-opacity="0" stroke-width="1" d="M510.842+126.888L552.304+265.304L396.89+217.842L510.842+126.888Z" fill="#7ba198" stroke-linecap="butt" opacity="1" stroke-linejoin="miter"/>
<path stroke="#000000" stroke-opacity="0" stroke-width="1" d="M463.853+128.673L492.991+128.53L493.179+166.562L464.041+166.706L463.853+128.673Z" fill="#d4aa73" stroke-linecap="butt" opacity="1" stroke-linejoin="miter"/>
<path stroke="#000000" stroke-opacity="0" stroke-width="1" d="M467.741+134.352L474.762+134.317L474.8+141.988L467.779+142.023L467.741+134.352Z" fill="#bfebf2" stroke-linecap="butt" opacity="1" stroke-linejoin="miter"/>
<path stroke="#000000" stroke-opacity="0" stroke-width="1" d="M481.876+134.71L488.897+134.675L488.935+142.346L481.914+142.381L481.876+134.71Z" fill="#bfebf2" stroke-linecap="butt" opacity="1" stroke-linejoin="miter"/>
<path stroke="#000000" stroke-opacity="0" stroke-width="1" d="M468.113+150.897L475.134+150.863L475.172+158.534L468.151+158.568L468.113+150.897Z" fill="#bfebf2" stroke-linecap="butt" opacity="1" stroke-linejoin="miter"/>
<path stroke="#000000" stroke-opacity="0" stroke-width="1" d="M482.439+151.009L489.194+150.976L489.263+165.11L482.508+165.143L482.439+151.009Z" fill="#856e2e" stroke-linecap="butt" opacity="1" stroke-linejoin="miter"/>
<path stroke="#000000" stroke-opacity="0" stroke-width="1" d="M467.926+99.8164L471.873+99.8L471.957+114.288L468.01+114.305L467.926+99.8164Z" fill="#b1b6b7" stroke-linecap="butt" opacity="0.523041" stroke-linejoin="miter"/>
<path stroke="#000000" stroke-opacity="0" stroke-width="1" d="M467.361+113.994L472.497+113.969L472.552+125.257L467.417+125.283L467.361+113.994Z" fill="#856e2e" stroke-linecap="butt" opacity="1" stroke-linejoin="miter"/>
<path stroke="#8b4040" vectornator:shadowColor="#162118" vectornator:shadowOffset="10" stroke-width="1" fill="#d7ad6d" stroke-linecap="butt" vectornator:shadowAngle="0.414946" stroke-linejoin="miter" opacity="0.949312" vectornator:shadowRadius="10" d="M84.4081+158.399C84.2707+130.504+108.328+107.772+138.143+107.626C167.957+107.479+192.237+129.972+192.375+157.867C192.512+185.761+168.454+208.493+138.64+208.64C108.826+208.787+84.5456+186.293+84.4081+158.399Z" stroke-opacity="0.00399134" vectornator:shadowOpacity="0.333"/>
<path stroke="#000000" stroke-opacity="0" stroke-width="1" d="M478.113+114.432L496.857+130.625L459.777+130.881L478.113+114.432Z" fill="#856e2e" stroke-linecap="butt" opacity="1" stroke-linejoin="miter"/>
<path stroke="#000000" stroke-opacity="0" stroke-width="1" d="M573.521+120.032L605.325+308.532L392.652+218.439L573.521+120.032Z" fill="#7ba198" stroke-linecap="butt" opacity="1" stroke-linejoin="miter"/>
<path stroke="#000000" stroke-opacity="0" stroke-width="1" d="M639.004+299.986L642.005+311.03L424.875+241.763L591.877+126.57L639.004+299.986" fill="#7ba198" stroke-linecap="butt" opacity="1" stroke-linejoin="miter"/>
<path stroke="#000000" stroke-opacity="0" stroke-width="1" d="M241.275+21.8452L419.163+163.958L123.804+202.828L241.275+21.8452Z" fill="#7ba198" stroke-linecap="butt" opacity="1" stroke-linejoin="miter"/>
<path stroke="#000000" stroke-opacity="0" stroke-width="1" d="M200.767+54.4662L336.743+188.831L111.521+240.027L200.767+54.4662Z" fill="#8e9d9a" stroke-linecap="butt" opacity="1" stroke-linejoin="miter"/>
<path stroke="#000000" stroke-opacity="0" stroke-width="1" d="M261.978+6.89406L402.343+136.669L178.945+195.316L261.978+6.89406Z" fill="#7ba198" stroke-linecap="butt" opacity="1" stroke-linejoin="miter"/>
<path stroke="#000000" stroke-opacity="0" stroke-width="1" d="M117.308+253.239C116.853+160.829+202.044+85.495+307.588+84.9749C413.131+84.4548+499.061+158.946+499.516+251.356" fill="#0a7151" stroke-linecap="butt" opacity="0.981953" stroke-linejoin="round"/>
<path vectornator:shadowColor="#162118" vectornator:shadowOpacity="0.333" vectornator:shadowRadius="6.75847" d="M654.992+315.543C656.131+230.352+573.904+160.773+471.331+160.133C368.759+159.493+284.683+228.035+283.544+313.226" vectornator:shadowOffset="6.47562" fill="#ecf4f4" opacity="1" vectornator:shadowAngle="0.414946"/>
<path stroke="#000000" stroke-opacity="0" stroke-width="1" d="M3.32554+315.199C2.91331+231.54+84.0647+163.32+184.582+162.824C285.1+162.329+366.92+229.746+367.332+313.405" fill="#51c1a7" stroke-linecap="butt" opacity="1" stroke-linejoin="miter"/>
<path stroke="#000000" stroke-opacity="0" stroke-width="1" d="M3.66114+323.864C3.45261+320.997+3.33987+318.107+3.32554+315.199" fill="#51c1a7" stroke-linecap="butt" opacity="1" stroke-linejoin="miter"/>
<path stroke="#8b4040" vectornator:shadowColor="#162118" vectornator:shadowOffset="10" stroke-width="1" fill="#185242" stroke-linecap="butt" vectornator:shadowAngle="0.712886" stroke-linejoin="miter" opacity="0.889821" vectornator:shadowRadius="10" d="M107.483+151.842L130.442+233.853L88.4408+234.953L92.1169+218.908L107.483+151.842Z" stroke-opacity="0" vectornator:shadowOpacity="0.333"/>
<path stroke="#8b4040" vectornator:shadowColor="#162118" vectornator:shadowOffset="10" stroke-width="1" fill="#336457" stroke-linecap="butt" vectornator:shadowAngle="0.414946" stroke-linejoin="miter" opacity="0.87" vectornator:shadowRadius="10" d="M94.1539+246.339C94.1423+243.975+100.973+242.025+109.411+241.984C117.849+241.942+124.698+243.825+124.71+246.188C124.722+248.552+117.891+250.502+109.453+250.543C101.015+250.585+94.1656+248.703+94.1539+246.339Z" stroke-opacity="0" vectornator:shadowOpacity="0.333"/>
<path stroke="#8b4040" vectornator:shadowColor="#162118" vectornator:shadowOffset="10" stroke-width="1" fill="#185242" stroke-linecap="butt" vectornator:shadowAngle="0.414946" stroke-linejoin="miter" opacity="0.87" vectornator:shadowRadius="10" d="M98.5087+249.495C98.5083+249.408+98.5079+249.338+98.5079+249.338C98.5079+249.338+98.5083+249.408+98.5087+249.495C98.5091+249.581+98.5095+249.652+98.5095+249.652C98.5095+249.652+98.5091+249.581+98.5087+249.495Z" vectornator:shadowOpacity="0.333"/>
<path stroke="#8b4040" vectornator:shadowColor="#162118" vectornator:shadowOffset="10" stroke-width="1" fill="#946125" stroke-linecap="butt" vectornator:shadowAngle="0.414946" stroke-linejoin="miter" opacity="0.87" vectornator:shadowRadius="10" d="M107.62+203.063L110.291+203.05L110.505+246.349L107.833+246.362L107.62+203.063Z" stroke-opacity="0" vectornator:shadowOpacity="0.333"/>
<path stroke="#8b4040" vectornator:shadowColor="#162118" vectornator:shadowOffset="10" stroke-width="1" fill="#946125" stroke-linecap="butt" vectornator:shadowAngle="0.414946" stroke-linejoin="miter" opacity="0.87" vectornator:shadowRadius="10" d="M117.951+207.582L119.115+209.223L108.758+218.208L107.595+216.567L117.951+207.582Z" stroke-opacity="0" vectornator:shadowOpacity="0.333"/>
<path stroke="#8b4040" vectornator:shadowColor="#162118" vectornator:shadowOffset="10" stroke-width="1" fill="#946125" stroke-linecap="butt" vectornator:shadowAngle="0.414946" stroke-linejoin="miter" opacity="0.87" vectornator:shadowRadius="10" d="M97.5539+213.947L99.4449+212.746L109.949+223.082L108.058+224.284L97.5539+213.947Z" stroke-opacity="0" vectornator:shadowOpacity="0.333"/>
<path stroke="#8b4040" vectornator:shadowColor="#162118" vectornator:shadowOffset="10" stroke-width="1" fill="#946125" stroke-linecap="butt" vectornator:shadowAngle="0.414946" stroke-linejoin="miter" opacity="0.87" vectornator:shadowRadius="10" d="M117.656+222.523L118.679+223.961L109.577+231.835L108.554+230.397L117.656+222.523Z" stroke-opacity="0.00399134" vectornator:shadowOpacity="0.333"/>
<path stroke="#8b8b8b" vectornator:shadowColor="#212121" vectornator:shadowOffset="10" stroke-width="1" fill="#e68454" stroke-linecap="butt" vectornator:shadowAngle="0.712886" stroke-linejoin="miter" opacity="0.89" vectornator:shadowRadius="10" d="M157.854+148.478L175.293+219.553L143.471+220.483L146.247+206.582L157.854+148.478Z" stroke-opacity="0" vectornator:shadowOpacity="0.333"/>
<path stroke="#8b4040" vectornator:shadowColor="#162118" vectornator:shadowOffset="10" stroke-width="1" fill="#336457" stroke-linecap="butt" vectornator:shadowAngle="0.414946" stroke-linejoin="miter" opacity="0.87" vectornator:shadowRadius="10" d="M147.806+230.352C147.795+228.304+152.97+226.618+159.363+226.587C165.756+226.555+170.947+228.19+170.957+230.238C170.967+232.286+165.793+233.972+159.4+234.003C153.006+234.035+147.816+232.4+147.806+230.352Z" stroke-opacity="0" vectornator:shadowOpacity="0.333"/>
<path stroke="#8b4040" vectornator:shadowColor="#162118" vectornator:shadowOffset="10" stroke-width="1" fill="#185242" stroke-linecap="butt" vectornator:shadowAngle="0.414946" stroke-linejoin="miter" opacity="0.87" vectornator:shadowRadius="10" d="M151.107+233.089C151.106+233.014+151.106+232.953+151.106+232.953C151.106+232.953+151.106+233.014+151.107+233.089C151.107+233.164+151.107+233.225+151.107+233.225C151.107+233.225+151.107+233.164+151.107+233.089Z" vectornator:shadowOpacity="0.333"/>
<path stroke="#8b4040" vectornator:shadowColor="#162118" vectornator:shadowOffset="10" stroke-width="1" fill="#946125" stroke-linecap="butt" vectornator:shadowAngle="0.414946" stroke-linejoin="miter" opacity="0.87" vectornator:shadowRadius="10" d="M157.985+192.861L160.009+192.851L160.194+230.37L158.17+230.38L157.985+192.861Z" stroke-opacity="0" vectornator:shadowOpacity="0.333"/>
<path stroke="#8b4040" vectornator:shadowColor="#162118" vectornator:shadowOffset="10" stroke-width="1" fill="#946125" stroke-linecap="butt" vectornator:shadowAngle="0.414946" stroke-linejoin="miter" opacity="0.87" vectornator:shadowRadius="10" d="M165.816+196.782L166.698+198.205L158.856+205.985L157.973+204.562L165.816+196.782Z" stroke-opacity="0" vectornator:shadowOpacity="0.333"/>
<path stroke="#8b4040" vectornator:shadowColor="#162118" vectornator:shadowOffset="10" stroke-width="1" fill="#946125" stroke-linecap="butt" vectornator:shadowAngle="0.414946" stroke-linejoin="miter" opacity="0.87" vectornator:shadowRadius="10" d="M150.364+202.287L151.796+201.246L159.761+210.209L158.328+211.249L150.364+202.287Z" stroke-opacity="0" vectornator:shadowOpacity="0.333"/>
<path stroke="#8b4040" vectornator:shadowColor="#162118" vectornator:shadowOffset="10" stroke-width="1" fill="#946125" stroke-linecap="butt" vectornator:shadowAngle="0.414946" stroke-linejoin="miter" opacity="0.87" vectornator:shadowRadius="10" d="M165.6+209.728L166.376+210.975L159.483+217.793L158.707+216.546L165.6+209.728Z" stroke-opacity="0.00399134" vectornator:shadowOpacity="0.333"/>
<path stroke="#8b8b8b" vectornator:shadowColor="#212121" vectornator:shadowOffset="10" stroke-width="1" fill="#e8d035" stroke-linecap="butt" vectornator:shadowAngle="0.712886" stroke-linejoin="miter" opacity="0.89" vectornator:shadowRadius="10" d="M68.4645+176.812L92.4272+260.846L48.5759+261.976L52.4155+245.535L68.4645+176.812Z" stroke-opacity="0" vectornator:shadowOpacity="0.333"/>
<path stroke="#8b4040" vectornator:shadowColor="#162118" vectornator:shadowOffset="10" stroke-width="1" fill="#336457" stroke-linecap="butt" vectornator:shadowAngle="0.414946" stroke-linejoin="miter" opacity="0.87" vectornator:shadowRadius="10" d="M54.5396+273.643C54.5277+271.221+61.6595+269.222+70.469+269.179C79.2786+269.135+86.4298+271.064+86.4417+273.485C86.4536+275.907+79.3218+277.906+70.5123+277.949C61.7027+277.993+54.5515+276.065+54.5396+273.643Z" stroke-opacity="0" vectornator:shadowOpacity="0.333"/>
<path stroke="#8b4040" vectornator:shadowColor="#162118" vectornator:shadowOffset="10" stroke-width="1" fill="#185242" stroke-linecap="butt" vectornator:shadowAngle="0.414946" stroke-linejoin="miter" opacity="0.87" vectornator:shadowRadius="10" d="M59.0859+276.876C59.0854+276.787+59.0851+276.715+59.0851+276.715C59.0851+276.715+59.0854+276.787+59.0859+276.876C59.0863+276.965+59.0867+277.037+59.0867+277.037C59.0867+277.037+59.0863+276.965+59.0859+276.876Z" vectornator:shadowOpacity="0.333"/>
<path stroke="#8b4040" vectornator:shadowColor="#162118" vectornator:shadowOffset="10" stroke-width="1" fill="#946125" stroke-linecap="butt" vectornator:shadowAngle="0.414946" stroke-linejoin="miter" opacity="0.87" vectornator:shadowRadius="10" d="M68.6024+229.298L71.3918+229.284L71.6104+273.652L68.8211+273.665L68.6024+229.298Z" stroke-opacity="0" vectornator:shadowOpacity="0.333"/>
<path stroke="#8b4040" vectornator:shadowColor="#162118" vectornator:shadowOffset="10" stroke-width="1" fill="#946125" stroke-linecap="butt" vectornator:shadowAngle="0.414946" stroke-linejoin="miter" opacity="0.87" vectornator:shadowRadius="10" d="M79.3889+233.927L80.604+235.609L69.7901+244.816L68.5751+243.135L79.3889+233.927Z" stroke-opacity="0" vectornator:shadowOpacity="0.333"/>
<path stroke="#8b4040" vectornator:shadowColor="#162118" vectornator:shadowOffset="10" stroke-width="1" fill="#946125" stroke-linecap="butt" vectornator:shadowAngle="0.414946" stroke-linejoin="miter" opacity="0.87" vectornator:shadowRadius="10" d="M58.0924+240.451L60.0669+239.22L71.0326+249.811L69.0582+251.042L58.0924+240.451Z" stroke-opacity="0" vectornator:shadowOpacity="0.333"/>
<path stroke="#8b4040" vectornator:shadowColor="#162118" vectornator:shadowOffset="10" stroke-width="1" fill="#946125" stroke-linecap="butt" vectornator:shadowAngle="0.414946" stroke-linejoin="miter" opacity="0.87" vectornator:shadowRadius="10" d="M79.0793+249.237L80.1472+250.71L70.643+258.78L69.5751+257.306L79.0793+249.237Z" stroke-opacity="0.00399134" vectornator:shadowOpacity="0.333"/>
<path stroke="#8b4040" vectornator:shadowColor="#162118" vectornator:shadowOffset="10" stroke-width="1" fill="#60ba54" stroke-linecap="butt" vectornator:shadowAngle="0.712886" stroke-linejoin="miter" opacity="0.889821" vectornator:shadowRadius="10" d="M248.39+52.2745L263.314+119.677L236.143+120.544L238.508+107.365L248.39+52.2745Z" stroke-opacity="0" vectornator:shadowOpacity="0.333"/>
<path stroke="#8b4040" vectornator:shadowColor="#162118" vectornator:shadowOffset="10" stroke-width="1" fill="#20463c" stroke-linecap="butt" vectornator:shadowAngle="0.414946" stroke-linejoin="miter" opacity="0.87" vectornator:shadowRadius="10" d="M239.849+129.905C239.839+127.963+244.257+126.366+249.715+126.339C255.174+126.313+259.607+127.865+259.617+129.807C259.626+131.749+255.209+133.345+249.75+133.372C244.291+133.399+239.859+131.847+239.849+129.905Z" stroke-opacity="0" vectornator:shadowOpacity="0.333"/>
<path stroke="#8b4040" vectornator:shadowColor="#162118" vectornator:shadowOffset="10" stroke-width="1" fill="#185242" stroke-linecap="butt" vectornator:shadowAngle="0.414946" stroke-linejoin="miter" opacity="0.87" vectornator:shadowRadius="10" d="M242.669+132.501C242.669+132.43+242.668+132.372+242.668+132.372C242.668+132.372+242.669+132.43+242.669+132.501C242.669+132.572+242.67+132.63+242.67+132.63C242.67+132.63+242.669+132.572+242.669+132.501Z" vectornator:shadowOpacity="0.333"/>
<path stroke="#8b4040" vectornator:shadowColor="#162118" vectornator:shadowOffset="10" stroke-width="1" fill="#946125" stroke-linecap="butt" vectornator:shadowAngle="0.414946" stroke-linejoin="miter" opacity="0.87" vectornator:shadowRadius="10" d="M248.523+94.3596L250.251+94.351L250.427+129.927L248.698+129.936L248.523+94.3596Z" stroke-opacity="0" vectornator:shadowOpacity="0.333"/>
<path stroke="#8b4040" vectornator:shadowColor="#162118" vectornator:shadowOffset="10" stroke-width="1" fill="#946125" stroke-linecap="butt" vectornator:shadowAngle="0.414946" stroke-linejoin="miter" opacity="0.87" vectornator:shadowRadius="10" d="M255.211+98.0816L255.965+99.4309L249.273+106.804L248.518+105.455L255.211+98.0816Z" stroke-opacity="0" vectornator:shadowOpacity="0.333"/>
<path stroke="#8b4040" vectornator:shadowColor="#162118" vectornator:shadowOffset="10" stroke-width="1" fill="#946125" stroke-linecap="butt" vectornator:shadowAngle="0.414946" stroke-linejoin="miter" opacity="0.87" vectornator:shadowRadius="10" d="M242.021+103.294L243.243+102.308L250.047+110.81L248.825+111.796L242.021+103.294Z" stroke-opacity="0" vectornator:shadowOpacity="0.333"/>
<path stroke="#8b4040" vectornator:shadowColor="#162118" vectornator:shadowOffset="10" stroke-width="1" fill="#946125" stroke-linecap="butt" vectornator:shadowAngle="0.414946" stroke-linejoin="miter" opacity="0.87" vectornator:shadowRadius="10" d="M255.033+110.357L255.696+111.539L249.814+118.001L249.151+116.819L255.033+110.357Z" stroke-opacity="0.00399134" vectornator:shadowOpacity="0.333"/>
<path stroke="#8b4040" vectornator:shadowColor="#162118" vectornator:shadowOffset="10" stroke-width="1" fill="#185242" stroke-linecap="butt" vectornator:shadowAngle="0.712886" stroke-linejoin="miter" opacity="1" vectornator:shadowRadius="10" d="M384.222+51.8624L404.889+130.705L366.72+131.645L370.099+116.243L384.222+51.8624Z" stroke-opacity="0" vectornator:shadowOpacity="0.333"/>
<path stroke="#8b4040" vectornator:shadowColor="#162118" vectornator:shadowOffset="10" stroke-width="1" fill="#1f4b3f" stroke-linecap="butt" vectornator:shadowAngle="0.414946" stroke-linejoin="miter" opacity="0.87" vectornator:shadowRadius="10" d="M371.588+142.522C371.597+140.251+377.82+138.435+385.487+138.466C393.155+138.496+399.363+140.362+399.354+142.632C399.345+144.903+393.122+146.718+385.455+146.688C377.787+146.657+371.579+144.792+371.588+142.522Z" stroke-opacity="0" vectornator:shadowOpacity="0.333"/>
<path stroke="#8b4040" vectornator:shadowColor="#162118" vectornator:shadowOffset="10" stroke-width="1" fill="#185242" stroke-linecap="butt" vectornator:shadowAngle="0.414946" stroke-linejoin="miter" opacity="0.87" vectornator:shadowRadius="10" d="M366.215+150.089C366.215+150.006+366.214+149.938+366.214+149.938C366.214+149.938+366.215+150.006+366.215+150.089C366.216+150.173+366.216+150.24+366.216+150.24C366.216+150.24+366.216+150.173+366.215+150.089Z" vectornator:shadowOpacity="0.333"/>
<path stroke="#8b4040" vectornator:shadowColor="#162118" vectornator:shadowOffset="10" stroke-width="1" fill="#946125" stroke-linecap="butt" vectornator:shadowAngle="0.414946" stroke-linejoin="miter" opacity="0.87" vectornator:shadowRadius="10" d="M384.192+101.06L386.62+101.063L386.569+142.656L384.141+142.653L384.192+101.06Z" stroke-opacity="0" vectornator:shadowOpacity="0.333"/>
<path stroke="#8b4040" vectornator:shadowColor="#162118" vectornator:shadowOffset="10" stroke-width="1" fill="#946125" stroke-linecap="butt" vectornator:shadowAngle="0.414946" stroke-linejoin="miter" opacity="0.87" vectornator:shadowRadius="10" d="M393.485+105.547L394.516+107.142L384.959+115.606L383.928+114.011L393.485+105.547Z" stroke-opacity="0" vectornator:shadowOpacity="0.333"/>
<path stroke="#8b4040" vectornator:shadowColor="#162118" vectornator:shadowOffset="10" stroke-width="1" fill="#946125" stroke-linecap="butt" vectornator:shadowAngle="0.414946" stroke-linejoin="miter" opacity="0.87" vectornator:shadowRadius="10" d="M374.849+111.334L376.586+110.21L385.961+120.306L384.223+121.43L374.849+111.334Z" stroke-opacity="0" vectornator:shadowOpacity="0.333"/>
<path stroke="#8b4040" vectornator:shadowColor="#162118" vectornator:shadowOffset="10" stroke-width="1" fill="#946125" stroke-linecap="butt" vectornator:shadowAngle="0.414946" stroke-linejoin="miter" opacity="0.87" vectornator:shadowRadius="10" d="M392.972+119.892L393.878+121.29L385.479+128.707L384.573+127.309L392.972+119.892Z" stroke-opacity="0.00399134" vectornator:shadowOpacity="0.333"/>
<path stroke="#8b4040" vectornator:shadowColor="#162118" vectornator:shadowOffset="10" stroke-width="1" fill="#e68454" stroke-linecap="butt" vectornator:shadowAngle="0.712886" stroke-linejoin="miter" opacity="0.889821" vectornator:shadowRadius="10" d="M517.894+178.602L533.221+239.747L505.24+240.55L507.683+228.591L517.894+178.602Z" stroke-opacity="0" vectornator:shadowOpacity="0.333"/>
<path stroke="#000000" stroke-opacity="0" stroke-width="1" d="M289.405+31.9039L240.843+46.0033L263.43+4.07114L289.405+31.9039Z" fill="#eaf6f8" stroke-linecap="butt" opacity="1" stroke-linejoin="miter"/>
<path stroke="#8b4040" vectornator:shadowColor="#162118" vectornator:shadowOffset="10" stroke-width="1" fill="#cee0df" stroke-linecap="butt" vectornator:shadowAngle="0.414946" stroke-linejoin="miter" opacity="0.87" vectornator:shadowRadius="10" d="M507.432+249.426C507.423+247.664+511.973+246.213+517.594+246.185C523.215+246.158+527.779+247.564+527.788+249.326C527.796+251.087+523.247+252.538+517.625+252.566C512.004+252.594+507.44+251.188+507.432+249.426Z" stroke-opacity="0" vectornator:shadowOpacity="0.333"/>
<path stroke="#8b4040" vectornator:shadowColor="#162118" vectornator:shadowOffset="10" stroke-width="1" fill="#185242" stroke-linecap="butt" vectornator:shadowAngle="0.414946" stroke-linejoin="miter" opacity="0.87" vectornator:shadowRadius="10" d="M490.375+242.379C490.374+242.314+490.374+242.262+490.374+242.262C490.374+242.262+490.374+242.314+490.375+242.379C490.375+242.444+490.375+242.496+490.375+242.496C490.375+242.496+490.375+242.444+490.375+242.379Z" vectornator:shadowOpacity="0.333"/>
<path stroke="#8b4040" vectornator:shadowColor="#162118" vectornator:shadowOffset="10" stroke-width="1" fill="#946125" stroke-linecap="butt" vectornator:shadowAngle="0.414946" stroke-linejoin="miter" opacity="0.87" vectornator:shadowRadius="10" d="M518.005+216.785L519.785+216.777L519.944+249.054L518.164+249.063L518.005+216.785Z" stroke-opacity="0" vectornator:shadowOpacity="0.333"/>
<path stroke="#8b4040" vectornator:shadowColor="#162118" vectornator:shadowOffset="10" stroke-width="1" fill="#946125" stroke-linecap="butt" vectornator:shadowAngle="0.414946" stroke-linejoin="miter" opacity="0.87" vectornator:shadowRadius="10" d="M524.889+220.158L525.665+221.382L518.769+228.076L517.993+226.852L524.889+220.158Z" stroke-opacity="0" vectornator:shadowOpacity="0.333"/>
<path stroke="#8b4040" vectornator:shadowColor="#162118" vectornator:shadowOffset="10" stroke-width="1" fill="#946125" stroke-linecap="butt" vectornator:shadowAngle="0.414946" stroke-linejoin="miter" opacity="0.87" vectornator:shadowRadius="10" d="M511.303+224.895L512.563+224L519.564+231.71L518.305+232.605L511.303+224.895Z" stroke-opacity="0" vectornator:shadowOpacity="0.333"/>
<path stroke="#8b4040" vectornator:shadowColor="#162118" vectornator:shadowOffset="10" stroke-width="1" fill="#946125" stroke-linecap="butt" vectornator:shadowAngle="0.414946" stroke-linejoin="miter" opacity="0.87" vectornator:shadowRadius="10" d="M524.699+231.296L525.381+232.368L519.32+238.234L518.638+237.162L524.699+231.296Z" stroke-opacity="0.00399134" vectornator:shadowOpacity="0.333"/>
<path stroke="#8b4040" vectornator:shadowColor="#162118" vectornator:shadowOffset="10" stroke-width="1" fill="#60ba54" stroke-linecap="butt" vectornator:shadowAngle="0.712886" stroke-linejoin="miter" opacity="0.889821" vectornator:shadowRadius="10" d="M571.14+207.279L591.401+289.998L549.386+289.721L553.586+273.805L571.14+207.279Z" stroke-opacity="0" vectornator:shadowOpacity="0.333"/>
<path stroke="#8b4040" vectornator:shadowColor="#162118" vectornator:shadowOffset="10" stroke-width="1" fill="#cee0df" stroke-linecap="butt" vectornator:shadowAngle="0.414946" stroke-linejoin="miter" opacity="0.87" vectornator:shadowRadius="10" d="M554.723+301.288C554.789+298.926+561.68+297.201+570.114+297.435C578.549+297.67+585.334+299.776+585.268+302.139C585.202+304.502+578.311+306.227+569.876+305.992C561.442+305.757+554.657+303.651+554.723+301.288Z" stroke-opacity="0" vectornator:shadowOpacity="0.333"/>
<path stroke="#8b4040" vectornator:shadowColor="#162118" vectornator:shadowOffset="10" stroke-width="1" fill="#185242" stroke-linecap="butt" vectornator:shadowAngle="0.414946" stroke-linejoin="miter" opacity="0.87" vectornator:shadowRadius="10" d="M559.168+313.352C559.184+313.266+559.196+313.197+559.196+313.197C559.196+313.197+559.184+313.266+559.168+313.352C559.153+313.437+559.141+313.506+559.141+313.506C559.141+313.506+559.153+313.437+559.168+313.352Z" vectornator:shadowOpacity="0.333"/>
<path stroke="#8b4040" vectornator:shadowColor="#162118" vectornator:shadowOffset="10" stroke-width="1" fill="#946125" stroke-linecap="butt" vectornator:shadowAngle="0.414946" stroke-linejoin="miter" opacity="0.87" vectornator:shadowRadius="10" d="M569.599+258.477L572.27+258.551L571.065+301.834L568.394+301.76L569.599+258.477Z" stroke-opacity="0" vectornator:shadowOpacity="0.333"/>
<path stroke="#8b4040" vectornator:shadowColor="#162118" vectornator:shadowOffset="10" stroke-width="1" fill="#946125" stroke-linecap="butt" vectornator:shadowAngle="0.414946" stroke-linejoin="miter" opacity="0.87" vectornator:shadowRadius="10" d="M579.777+263.332L580.887+265.01L570.241+273.651L569.132+271.973L579.777+263.332Z" stroke-opacity="0" vectornator:shadowOpacity="0.333"/>
<path stroke="#8b4040" vectornator:shadowColor="#162118" vectornator:shadowOffset="10" stroke-width="1" fill="#946125" stroke-linecap="butt" vectornator:shadowAngle="0.414946" stroke-linejoin="miter" opacity="0.87" vectornator:shadowRadius="10" d="M559.182+269.025L561.112+267.886L571.271+278.562L569.342+279.701L559.182+269.025Z" stroke-opacity="0" vectornator:shadowOpacity="0.333"/>
<path stroke="#8b4040" vectornator:shadowColor="#162118" vectornator:shadowOffset="10" stroke-width="1" fill="#946125" stroke-linecap="butt" vectornator:shadowAngle="0.414946" stroke-linejoin="miter" opacity="0.87" vectornator:shadowRadius="10" d="M578.993+278.255L579.968+279.726L570.612+287.298L569.637+285.827L578.993+278.255Z" stroke-opacity="0.00399134" vectornator:shadowOpacity="0.333"/>
<path stroke="#8b4040" vectornator:shadowColor="#162118" vectornator:shadowOffset="10" stroke-width="1" fill="#e8d035" stroke-linecap="butt" vectornator:shadowAngle="0.712886" stroke-linejoin="miter" opacity="0.889821" vectornator:shadowRadius="10" d="M536.616+183.415L553.083+252.888L520.2+252.313L523.369+239.012L536.616+183.415Z" stroke-opacity="0" vectornator:shadowOpacity="0.333"/>
<path stroke="#8b4040" vectornator:shadowColor="#162118" vectornator:shadowOffset="10" stroke-width="1" fill="#cee0df" stroke-linecap="butt" vectornator:shadowAngle="0.414946" stroke-linejoin="miter" opacity="0.87" vectornator:shadowRadius="10" d="M523.916+264.062C523.95+262.083+529.33+260.694+535.933+260.96C542.536+261.226+547.861+263.045+547.827+265.024C547.793+267.004+542.413+268.393+535.81+268.127C529.207+267.861+523.882+266.042+523.916+264.062Z" stroke-opacity="0" vectornator:shadowOpacity="0.333"/>
<path stroke="#8b4040" vectornator:shadowColor="#162118" vectornator:shadowOffset="10" stroke-width="1" fill="#185242" stroke-linecap="butt" vectornator:shadowAngle="0.414946" stroke-linejoin="miter" opacity="0.87" vectornator:shadowRadius="10" d="M616.413+118.509C616.424+118.437+616.432+118.379+616.432+118.379C616.432+118.379+616.424+118.437+616.413+118.509C616.402+118.581+616.393+118.639+616.393+118.639C616.393+118.639+616.402+118.581+616.413+118.509Z" vectornator:shadowOpacity="0.333"/>
<path stroke="#8b4040" vectornator:shadowColor="#162118" vectornator:shadowOffset="10" stroke-width="1" fill="#946125" stroke-linecap="butt" vectornator:shadowAngle="0.414946" stroke-linejoin="miter" opacity="0.87" vectornator:shadowRadius="10" d="M535.788+226.299L537.879+226.383L537.255+262.639L535.165+262.555L535.788+226.299Z" stroke-opacity="0" vectornator:shadowOpacity="0.333"/>
<path stroke="#8b4040" vectornator:shadowColor="#162118" vectornator:shadowOffset="10" stroke-width="1" fill="#946125" stroke-linecap="butt" vectornator:shadowAngle="0.414946" stroke-linejoin="miter" opacity="0.87" vectornator:shadowRadius="10" d="M543.79+230.451L544.67+231.866L536.403+239.019L535.522+237.603L543.79+230.451Z" stroke-opacity="0" vectornator:shadowOpacity="0.333"/>
<path stroke="#8b4040" vectornator:shadowColor="#162118" vectornator:shadowOffset="10" stroke-width="1" fill="#946125" stroke-linecap="butt" vectornator:shadowAngle="0.414946" stroke-linejoin="miter" opacity="0.87" vectornator:shadowRadius="10" d="M527.714+235.052L529.215+234.114L537.245+243.141L535.744+244.08L527.714+235.052Z" stroke-opacity="0" vectornator:shadowOpacity="0.333"/>
<path stroke="#8b4040" vectornator:shadowColor="#162118" vectornator:shadowOffset="10" stroke-width="1" fill="#946125" stroke-linecap="butt" vectornator:shadowAngle="0.414946" stroke-linejoin="miter" opacity="0.87" vectornator:shadowRadius="10" d="M543.286+242.947L544.06+244.188L536.794+250.456L536.02+249.215L543.286+242.947Z" stroke-opacity="0.00399134" vectornator:shadowOpacity="0.333"/>
<path stroke="#8b4040" vectornator:shadowColor="#162118" vectornator:shadowOffset="10" stroke-width="1" fill="#6db5d7" stroke-linecap="butt" vectornator:shadowAngle="0.414946" stroke-linejoin="miter" opacity="0.949312" vectornator:shadowRadius="10" d="M277.251+91.1517C277.227+86.3523+294.461+82.3767+315.744+82.2718C337.028+82.167+354.3+85.9726+354.324+90.7719C354.347+95.5713+337.113+99.5469+315.83+99.6518C294.547+99.7567+277.274+95.9511+277.251+91.1517Z" stroke-opacity="0.00399134" vectornator:shadowOpacity="0.333"/>
<path stroke="#8b4040" vectornator:shadowColor="#162118" vectornator:shadowOffset="10" stroke-width="1" fill="#6db5d7" stroke-linecap="butt" vectornator:shadowAngle="0.414946" stroke-linejoin="miter" opacity="0.949312" vectornator:shadowRadius="10" d="M109.31+263.358C109.262+253.627+146.419+245.555+192.302+245.329C238.186+245.102+275.421+252.808+275.469+262.539C275.517+272.27+238.36+280.342+192.476+280.568C146.593+280.794+109.358+273.089+109.31+263.358Z" stroke-opacity="0.00399134" vectornator:shadowOpacity="0.333"/>
<path stroke="#000000" stroke-opacity="0" stroke-width="1" d="M229.012+191.136L258.15+190.993L258.337+229.025L229.199+229.169L229.012+191.136Z" fill="#438ca1" stroke-linecap="butt" opacity="1" stroke-linejoin="miter"/>
<path stroke="#000000" stroke-opacity="0" stroke-width="1" d="M232.899+196.815L239.92+196.78L239.958+204.451L232.937+204.486L232.899+196.815Z" fill="#bfebf2" stroke-linecap="butt" opacity="1" stroke-linejoin="miter"/>
<path stroke="#000000" stroke-opacity="0" stroke-width="1" d="M247.035+197.173L254.056+197.138L254.093+204.81L247.073+204.844L247.035+197.173Z" fill="#bfebf2" stroke-linecap="butt" opacity="1" stroke-linejoin="miter"/>
<path stroke="#000000" stroke-opacity="0" stroke-width="1" d="M233.271+213.36L240.292+213.326L240.33+220.997L233.309+221.032L233.271+213.36Z" fill="#bfebf2" stroke-linecap="butt" opacity="1" stroke-linejoin="miter"/>
<path stroke="#000000" stroke-opacity="0" stroke-width="1" d="M247.597+213.472L254.352+213.439L254.422+227.573L247.667+227.606L247.597+213.472Z" fill="#856e2e" stroke-linecap="butt" opacity="1" stroke-linejoin="miter"/>
<path stroke="#000000" stroke-opacity="0" stroke-width="1" d="M243.272+176.896L262.016+193.089L224.935+193.344L243.272+176.896Z" fill="#856e2e" stroke-linecap="butt" opacity="1" stroke-linejoin="miter"/>
<path stroke="#000000" stroke-opacity="0" stroke-width="1" d="M232.52+176.457L237.655+176.432L237.711+187.72L232.575+187.746L232.52+176.457Z" fill="#856e2e" stroke-linecap="butt" opacity="1" stroke-linejoin="miter"/>
<path stroke="#000000" stroke-opacity="0" stroke-width="1" d="M233.107+165.211L237.054+165.197L237.138+176.799L233.191+176.812L233.107+165.211Z" fill="#b1b6b7" stroke-linecap="butt" opacity="0.523041" stroke-linejoin="miter"/>
<path stroke="#000000" stroke-opacity="0" stroke-width="1" d="M416.181+252.436L452.796+252.256L453.031+300.04L416.416+300.22L416.181+252.436Z" fill="#c4bca5" stroke-linecap="butt" opacity="1" stroke-linejoin="miter"/>
<path stroke="#000000" stroke-opacity="0" stroke-width="1" d="M421.066+259.571L429.889+259.527L429.936+269.165L421.114+269.209L421.066+259.571Z" fill="#bfebf2" stroke-linecap="butt" opacity="1" stroke-linejoin="miter"/>
<path stroke="#000000" stroke-opacity="0" stroke-width="1" d="M438.829+260.021L447.651+259.977L447.699+269.615L438.876+269.659L438.829+260.021Z" fill="#bfebf2" stroke-linecap="butt" opacity="1" stroke-linejoin="miter"/>
<path stroke="#000000" stroke-opacity="0" stroke-width="1" d="M421.534+280.358L430.356+280.315L430.404+289.953L421.581+289.996L421.534+280.358Z" fill="#bfebf2" stroke-linecap="butt" opacity="1" stroke-linejoin="miter"/>
<path stroke="#000000" stroke-opacity="0" stroke-width="1" d="M439.535+280.499L448.024+280.457L448.111+298.215L439.623+298.257L439.535+280.499Z" fill="#856e2e" stroke-linecap="butt" opacity="1" stroke-linejoin="miter"/>
<path stroke="#331414" stroke-opacity="0" stroke-width="1" d="M420.589+233.993L427.042+233.962L427.112+248.145L420.659+248.176L420.589+233.993Z" fill="#856e2e" stroke-linecap="butt" opacity="1" stroke-linejoin="miter"/>
<path stroke="#000000" stroke-opacity="0" stroke-width="1" d="M261.622+39.5912L221.369+51.5939L239.079+17.1558L261.622+39.5912Z" fill="#eaf6f8" stroke-linecap="butt" opacity="1" stroke-linejoin="miter"/>
<g opacity="1">
<path stroke="#8b4040" stroke-opacity="0.00399134" stroke-width="1" d="M202.817+109.573C202.429+109.949+197.879+103.552+192.655+95.2852C187.431+87.0184+183.511+80.0123+183.9+79.6365C184.288+79.2607+188.838+85.6576+194.062+93.9244C199.286+102.191+203.206+109.197+202.817+109.573Z" fill="#bdbdbd" stroke-linecap="butt" opacity="0.949312" stroke-linejoin="miter"/>
<path stroke="#8b4040" stroke-opacity="0.00399134" stroke-width="1" d="M203.378+110.346C203.734+110.521+202.409+115.571+200.267+122.391C199.757+124.017+199.199+125.744+198.607+127.529C195.532+136.802+192.682+144.143+192.242+143.926C191.801+143.709+193.937+136.016+197.012+126.743C200.087+117.47+202.937+110.129+203.378+110.346Z" fill="#bdbdbd" stroke-linecap="butt" opacity="0.949312" stroke-linejoin="miter"/>
<path stroke="#8b4040" stroke-opacity="0.00399134" stroke-width="1" d="M203.094+109.702C203.035+109.1+209.547+107.491+217.639+106.109C225.732+104.727+232.34+104.094+232.399+104.696C232.458+105.299+225.945+106.907+217.853+108.289C209.76+109.672+203.153+110.304+203.094+109.702Z" fill="#bdbdbd" stroke-linecap="butt" opacity="0.949312" stroke-linejoin="miter"/>
<path stroke="#8b4040" stroke-opacity="0.00399134" stroke-width="1" d="M202.145+109.003L204.821+108.989L205.043+154.143L202.368+154.156L202.145+109.003Z" fill="#bdbdbd" stroke-linecap="butt" opacity="0.949312" stroke-linejoin="miter"/>
<path stroke="#8b4040" stroke-opacity="0.00399134" stroke-width="1" d="M200.64+109.594C200.631+107.895+201.809+106.511+203.27+106.504C204.732+106.496+205.923+107.869+205.931+109.568C205.94+111.268+204.762+112.652+203.301+112.659C201.839+112.666+200.648+111.294+200.64+109.594Z" fill="#959390" stroke-linecap="butt" opacity="0.949312" stroke-linejoin="miter"/>
<path stroke="#592121" stroke-opacity="0.00399134" stroke-width="1" d="M201.88+150.649L205.904+150.629L206.054+181.039L202.029+181.059L201.88+150.649Z" fill="#bdbdbd" stroke-linecap="butt" opacity="0.949312" stroke-linejoin="miter"/>
<path stroke="#3d3a3a" stroke-opacity="0.00399134" stroke-width="1" d="M200.798+177.161L207.303+177.129L207.379+192.438L200.873+192.47L200.798+177.161Z" fill="#a6a6a4" stroke-linecap="butt" opacity="0.949312" stroke-linejoin="miter"/>
</g>
<path stroke="#000000" stroke-opacity="0" stroke-width="1" d="M434.1+234.544L457.654+254.889L411.059+255.21L434.1+234.544Z" fill="#856e2e" stroke-linecap="butt" opacity="1" stroke-linejoin="miter"/>
<path stroke="#000000" stroke-opacity="0" stroke-width="1" d="M421.232+222.79L426.192+222.777L426.298+234.224L421.338+234.237L421.232+222.79Z" fill="#b1b6b7" stroke-linecap="butt" opacity="0.523041" stroke-linejoin="miter"/>
<g opacity="1">
<path stroke="#8b4040" stroke-opacity="0.00399134" stroke-width="1" d="M628.208+192.618C627.527+192.33+631.045+182.628+636.065+170.949C641.085+159.27+645.707+150.035+646.388+150.324C647.069+150.612+643.551+160.314+638.531+171.993C633.511+183.673+628.889+192.907+628.208+192.618Z" fill="#bdbdbd" stroke-linecap="butt" opacity="0.949312" stroke-linejoin="miter"/>
<path stroke="#8b4040" stroke-opacity="0.00399134" stroke-width="1" d="M628.352+193.905C628.493+194.46+622.358+196.455+613.761+198.721C611.712+199.261+609.522+199.817+607.245+200.372C595.414+203.256+585.682+205.037+585.508+204.35C585.334+203.662+594.784+200.767+606.616+197.882C618.447+194.998+628.179+193.217+628.352+193.905Z" fill="#bdbdbd" stroke-linecap="butt" opacity="0.949312" stroke-linejoin="miter"/>
<path stroke="#8b4040" stroke-opacity="0.00399134" stroke-width="1" d="M628.255+192.546C628.868+192.137+635.03+199.936+642.018+209.966C649.006+219.995+654.175+228.457+653.562+228.866C652.95+229.275+646.788+221.476+639.799+211.447C632.811+201.417+627.643+192.955+628.255+192.546Z" fill="#bdbdbd" stroke-linecap="butt" opacity="0.949312" stroke-linejoin="miter"/>
<path stroke="#8b4040" stroke-opacity="0.00399134" stroke-width="1" d="M626.062+192.543L630.064+192.524L630.334+247.382L626.332+247.402L626.062+192.543Z" fill="#bdbdbd" stroke-linecap="butt" opacity="0.949312" stroke-linejoin="miter"/>
<path stroke="#8b4040" stroke-opacity="0.00399134" stroke-width="1" d="M623.809+193.265C623.799+191.2+625.562+189.517+627.748+189.506C629.934+189.495+631.714+191.161+631.725+193.226C631.735+195.291+629.971+196.974+627.785+196.984C625.599+196.995+623.819+195.33+623.809+193.265Z" fill="#959390" stroke-linecap="butt" opacity="0.949312" stroke-linejoin="miter"/>
<path stroke="#592121" stroke-opacity="0.00399134" stroke-width="1" d="M625.607+243.142L631.626+243.112L631.808+280.059L625.789+280.088L625.607+243.142Z" fill="#bdbdbd" stroke-linecap="butt" opacity="0.949312" stroke-linejoin="miter"/>
<path stroke="#3d3a3a" stroke-opacity="0.00399134" stroke-width="1" d="M623.952+275.354L633.683+275.306L633.775+293.905L624.043+293.953L623.952+275.354Z" fill="#a6a6a4" stroke-linecap="butt" opacity="0.949312" stroke-linejoin="miter"/>
</g>
</g>
</g>
</svg>
