<?xml version="1.0" encoding="UTF-8" standalone="no"?> <!-- Created with Vectornator for iOS (http://vectornator.io/) --><!DOCTYPE svg PUBLIC "-//W3C//DTD SVG 1.1//EN" "http://www.w3.org/Graphics/SVG/1.1/DTD/svg11.dtd">
<svg style="fill-rule:evenodd;clip-rule:evenodd;stroke-linecap:round;stroke-linejoin:round;" xmlns:vectornator="http://vectornator.io" xmlns:xlink="http://www.w3.org/1999/xlink" xmlns="http://www.w3.org/2000/svg" xml:space="preserve" version="1.1" viewBox="0 0 400 400">
<metadata>
<vectornator:setting key="DynamicGuides" value="1"/>
<vectornator:setting key="CMYKEnabledKey" value="0"/>
<vectornator:setting key="Units" value="Points"/>
<vectornator:setting key="GridSpacing" value="36"/>
<vectornator:setting key="SnapToGuides" value="1"/>
<vectornator:setting key="RulersVisible" value="1"/>
</metadata>
<defs/>
<g id="Layer 1" vectornator:layerName="Layer 1">
<g opacity="1">
<path stroke="#3d3a3a" fill-rule="evenodd" stroke-opacity="0" stroke-width="1" d="M236.813+101.24L337.218+63.1418" fill="#cd6d1d" stroke-linecap="butt" opacity="1" stroke-linejoin="miter"/>
<path stroke="#3d3a3a" fill-rule="evenodd" stroke-opacity="0" stroke-width="3" d="M5.14207+197.924C5.14207+88.5443+93.1781-0.125616+201.776-0.125616C310.374-0.125616+398.41+88.5443+398.41+197.924C398.41+307.304+310.374+395.974+201.776+395.974C93.1781+395.974+5.14207+307.304+5.14207+197.924Z" fill="#bcd0cf" stroke-linecap="round" opacity="1" stroke-linejoin="round"/>
<path stroke="#3d3a3a" fill-rule="evenodd" stroke-opacity="0.00399134" stroke-width="1" d="M76.0131+156.626C76.0131+144.992+85.0131+135.56+96.1152+135.56C107.217+135.56+116.217+144.992+116.217+156.626C116.217+168.26+107.217+177.691+96.1152+177.691C85.0131+177.691+76.0131+168.26+76.0131+156.626Z" fill="#f0c5a1" stroke-linecap="butt" opacity="1" stroke-linejoin="miter"/>
<path stroke="#3d3a3a" fill-rule="evenodd" stroke-opacity="0.00399134" stroke-width="1" d="M288.839+156.281C288.839+144.647+297.839+135.215+308.941+135.215C320.043+135.215+329.043+144.647+329.043+156.281C329.043+167.915+320.043+177.346+308.941+177.346C297.839+177.346+288.839+167.915+288.839+156.281Z" fill="#f0c5a1" stroke-linecap="butt" opacity="1" stroke-linejoin="miter"/>
<path stroke="#3d3a3a" fill-rule="evenodd" stroke-opacity="0" stroke-width="1" d="M99.0903+334.013C99.0903+290.917+133.96+249.291+203.094+249.291C272.228+249.291+309.848+293.254+309.848+336.35C309.848+379.447+271.313+395.974+202.179+395.974C133.044+395.974+99.0903+377.109+99.0903+334.013Z" fill="#117890" stroke-linecap="butt" opacity="1" stroke-linejoin="miter"/>
<path stroke="#3d3a3a" fill-rule="evenodd" stroke-opacity="0" stroke-width="1" d="M159.412+276.498C159.412+257.729+178.337+242.515+201.683+242.515C225.029+242.515+243.955+257.729+243.955+276.498C243.955+295.266+225.029+310.48+201.683+310.48C178.337+310.48+159.412+295.266+159.412+276.498Z" fill="#e0b896" stroke-linecap="butt" opacity="1" stroke-linejoin="miter"/>
<path stroke="#3d3a3a" fill-rule="evenodd" stroke-opacity="0.00399134" stroke-width="1" d="M92.7931+154.657C92.7931+94.7971+140.681+46.271+199.753+46.271C258.825+46.271+306.712+94.7971+306.712+154.657C306.712+214.517+258.825+263.043+199.753+263.043C140.681+263.043+92.7931+214.517+92.7931+154.657Z" fill="#f0c5a1" stroke-linecap="butt" opacity="1" stroke-linejoin="miter"/>
<path stroke="#3d3a3a" fill-rule="evenodd" stroke-opacity="0" stroke-width="1" d="M236.851+116.738C304.154+158.486+304.744+143.366+304.744+143.366C313.166+132.598+301.123+146.367+308.286+149.964C313.818+152.742+338.957+148.63+329.869+147.248C292.482+141.56+335.548+138.447+331.866+133.997C300.031+95.5309+323.03+123.62+325.106+122.88C325.843+122.617+316.846+80.3482+316.846+80.3482C309.368+76.8829+299.358+52.9837+295.107+48.6574C272.128+25.2689+247.211+31.3126+247.211+31.3126C200.061+26.5979+169.069+31.3733+169.069+31.3733C126.758+46.3141+120.28+57.1681+120.28+57.1681C87.5651+83.4388+95.0839+86.952+95.0839+86.952C83.4062+108.913+83.8692+107.415+83.8692+107.415C73.0896+131.224+82.3251+133.344+82.3251+133.344C87.5057+154.185+87.5057+154.185+87.5057+154.185C87.5057+154.185+129.777+84.9042+196.422+122.088C197.541+122.713+235.739+116.048+236.851+116.738Z" fill="#cd6d1d" stroke-linecap="butt" opacity="1" stroke-linejoin="miter"/>
<path stroke="#3d3a3a" fill-rule="evenodd" stroke-opacity="0" stroke-width="1" d="M235.89+100.401L336.295+62.3028" fill="#cd6d1d" stroke-linecap="butt" opacity="1" stroke-linejoin="miter"/>
<path stroke="#3d3a3a" fill-rule="evenodd" stroke-opacity="0" stroke-width="1" d="M238.399+185.26C244.437+173.866+259.084+171.131+271.115+179.151C283.146+187.171+288.005+202.91+281.968+214.304C275.93+225.697+261.283+228.432+249.252+220.412C237.22+212.392+232.362+196.654+238.399+185.26" fill="#e7c1a2" stroke-linecap="butt" opacity="1" stroke-linejoin="miter"/>
<path stroke="#ab6126" fill-rule="evenodd" stroke-width="2" d="M121.484+151.912C120.879+150.517+120.568+149.061+120.59+147.568C120.729+138.01+134.456+130.528+151.249+130.856C168.042+131.184+181.543+139.198+181.403+148.756" fill="#e7c1a2" stroke-linecap="butt" fill-opacity="0" opacity="1" stroke-linejoin="miter"/>
<path stroke="#3d3a3a" fill-rule="evenodd" stroke-width="3" d="M137.704+159.841C137.105+158.766+136.704+157.616+136.532+156.405C135.43+148.654+144.116+141.36+155.934+140.114C167.752+138.868+178.226+144.141+179.328+151.891" fill="#f0e6de" stroke-linecap="butt" opacity="1" stroke-linejoin="miter"/>
<path stroke="#ab6126" fill-rule="evenodd" stroke-width="2" d="M220.525+154.657C219.93+153.229+219.635+151.754+219.681+150.259C219.972+140.685+234.09+133.875+251.213+135.047C268.336+136.219+281.981+144.93+281.69+154.503" fill="#e7c1a2" stroke-linecap="butt" fill-opacity="0" opacity="1" stroke-linejoin="miter"/>
<path stroke="#3d3a3a" fill-rule="evenodd" stroke-width="3" d="M227.214+153.151C227.245+152.002+227.49+150.876+227.968+149.798C231.032+142.905+242.502+140.628+253.588+144.712C264.675+148.796+271.179+157.695+268.116+164.588" fill="#e8dfd8" stroke-linecap="butt" opacity="1" stroke-linejoin="miter"/>
<path stroke="#d79b53" fill-rule="evenodd" stroke-width="2" d="M230.721+201.952C231.157+202.646+231.282+203.37+231.058+204.11C229.624+208.846+214.446+212.472+197.156+212.211C179.867+211.949+167.013+207.897+168.447+203.161" fill="#e7c1a2" stroke-linecap="butt" fill-opacity="0" opacity="1" stroke-linejoin="miter"/>
<path stroke="#3d3a3a" fill-rule="evenodd" stroke-opacity="0" stroke-width="1" d="M144.604+172.976C157.47+173.833+165.949+186.086+163.542+200.344C161.136+214.601+148.754+225.465+135.888+224.607C123.022+223.75+114.543+211.497+116.95+197.239C119.357+182.982+131.738+172.118+144.604+172.976" fill="#e7c1a2" stroke-linecap="butt" opacity="1" stroke-linejoin="miter"/>
<path stroke="#d7a271" fill-rule="evenodd" stroke-width="1" d="M184.921+174.363C184.921+172.373+186.732+170.759+188.965+170.759C191.199+170.759+193.01+172.373+193.01+174.363C193.01+176.354+191.199+177.968+188.965+177.968C186.732+177.968+184.921+176.354+184.921+174.363Z" fill="#e0b896" stroke-linecap="butt" opacity="1" stroke-linejoin="miter"/>
<path stroke="#d79b53" fill-rule="evenodd" stroke-width="2" d="M179.181+174.628C178.959+173.406+178.917+172.139+179.077+170.847C180.097+162.578+188.972+156.438+198.898+157.132C208.824+157.826+216.044+165.091+215.024+173.36" fill="#e7c1a2" stroke-linecap="butt" fill-opacity="0" opacity="1" stroke-linejoin="miter"/>
<path stroke="#d7a271" fill-rule="evenodd" stroke-width="1" d="M201.776+174.842C201.776+172.851+203.587+171.237+205.82+171.237C208.054+171.237+209.865+172.851+209.865+174.842C209.865+176.832+208.054+178.446+205.82+178.446C203.587+178.446+201.776+176.832+201.776+174.842Z" fill="#e0b896" stroke-linecap="butt" opacity="1" stroke-linejoin="miter"/>
<path stroke="#d79b53" fill-rule="evenodd" stroke-width="2" d="M217.31+219.809C217.525+220.341+217.587+220.895+217.476+221.461C216.768+225.088+209.27+227.866+200.73+227.665C192.19+227.465+185.84+224.362+186.548+220.735" fill="#e7c1a2" stroke-linecap="butt" fill-opacity="0" opacity="1" stroke-linejoin="miter"/>
<path stroke="#3d3a3a" fill-rule="evenodd" stroke-opacity="0" stroke-width="3" d="M242.615+153.091C242.615+149.524+245.798+146.632+249.723+146.632C253.649+146.632+256.832+149.524+256.832+153.091C256.832+156.659+253.649+159.55+249.723+159.55C245.798+159.55+242.615+156.659+242.615+153.091Z" fill="#668297" stroke-linecap="butt" opacity="1" stroke-linejoin="miter"/>
<path stroke="#3d3a3a" fill-rule="evenodd" stroke-opacity="0.00399134" stroke-width="1" d="M299.773+371.013L281.543+383.203L267.798+319.072L270.583+306.432L281.177+298.999L291.074+295.517L302.636+298.999L322.657+350.039L317.87+355.072L312.06+360.686L299.773+371.013Z" fill="#f0c5a1" stroke-linecap="butt" opacity="1" stroke-linejoin="miter"/>
<path stroke="#3d3a3a" fill-rule="evenodd" stroke-opacity="0.00399134" stroke-width="1" d="M107.682+372.525L127.662+380.815L139.657+320.584L136.872+307.944L126.278+300.511L116.381+297.029L104.82+300.511L83.1251+353.308L89.0011+359.774L96.76+365.503L107.682+372.525Z" fill="#f0c5a1" stroke-linecap="butt" opacity="1" stroke-linejoin="miter"/>
<path stroke="#3d3a3a" fill-rule="evenodd" stroke-opacity="0" stroke-width="3" d="M149.399+150.758C149.399+147.191+152.582+144.299+156.507+144.299C160.433+144.299+163.616+147.191+163.616+150.758C163.616+154.325+160.433+157.217+156.507+157.217C152.582+157.217+149.399+154.325+149.399+150.758Z" fill="#668297" stroke-linecap="butt" opacity="1" stroke-linejoin="miter"/>
<path stroke="#3d3a3a" stroke-opacity="0" stroke-width="3" d="M199.348+262.866L127.591+236.392L111.391+178.446L167.074+164.588L227.026+164.588L281.695+177.691L267.798+242.515L199.348+262.866Z" fill="#e7eded" stroke-linecap="round" opacity="1" stroke-linejoin="round"/>
<path stroke="#3d3a3a" stroke-opacity="0" stroke-width="3" d="M281.695+177.691L303.801+177.968L302.41+187.914L277.958+187.914L281.695+177.691Z" fill="#e7eded" stroke-linecap="round" opacity="1" stroke-linejoin="round"/>
<path stroke="#3d3a3a" stroke-opacity="0" stroke-width="3" d="M96.1151+177.691L111.391+178.446L116.217+187.569L96.1151+187.569L96.1151+177.691Z" fill="#e7eded" stroke-linecap="round" opacity="1" stroke-linejoin="round"/>
<path stroke="#3d3a3a" stroke-opacity="0" stroke-width="3" d="M197.05+198.791L200.486+198.791L200.486+261.657L197.05+261.657L197.05+198.791Z" fill="#dbdbdb" stroke-linecap="round" opacity="1" stroke-linejoin="round"/>
<path stroke="#3d3a3a" stroke-opacity="0" stroke-width="3" d="M136.075+192.768L136.577+189.369L198.768+198.553L198.266+201.952L136.075+192.768Z" fill="#dbdbdb" stroke-linecap="round" opacity="1" stroke-linejoin="round"/>
<path stroke="#3d3a3a" stroke-opacity="0" stroke-width="3" d="M197.808+201.952L197.38+198.543L259.755+190.701L260.183+194.11L197.808+201.952Z" fill="#dbdbdb" stroke-linecap="round" opacity="1" stroke-linejoin="round"/>
<g opacity="1">
<path stroke="#d5a02a" vectornator:shadowColor="#211a16" vectornator:shadowOffset="10" stroke-width="1" fill="#e73809" stroke-linecap="round" vectornator:shadowAngle="0.414946" stroke-linejoin="round" opacity="1" vectornator:shadowRadius="10" d="M80.6205+321.103C80.6205+323.963+79.713+326.465+77.898+328.61C76.083+330.755+73.8372+331.828+71.1605+331.828C65.7705+331.828+61.8105+329.261+59.2805+324.128C56.5305+322.331+55.1555+320.809+55.1555+319.563C55.1555+318.939+55.5405+318.426+56.3105+318.023C57.8138+317.216+59.1888+316.813+60.4355+316.813C63.1488+316.813+64.9638+318.426+65.8805+321.653C66.3205+322.533+66.7788+323.413+67.2555+324.293C67.7322+325.173+68.3738+325.613+69.1805+325.613C71.3438+325.613+72.4255+324.073+72.4255+320.993C72.4255+318.243+71.9305+316.391+70.9405+315.438C70.5005+315.034+68.7405+314.191+65.6605+312.908C63.2038+311.881+61.2238+310.121+59.7205+307.628C58.3638+305.354+57.6672+302.989+57.6305+300.533C57.5938+296.573+58.5838+293.053+60.6005+289.973C62.7272+286.673+65.3672+285.023+68.5205+285.023C72.1872+285.023+74.8638+286.489+76.5505+289.423C77.6505+291.256+78.2738+293.529+78.4205+296.243C78.8238+297.636+79.0255+298.901+79.0255+300.038C79.0255+300.771+78.9338+301.376+78.7505+301.853C78.2005+303.209+77.1188+303.888+75.5055+303.888C74.2955+303.888+73.1955+303.448+72.2055+302.568C71.1055+301.614+70.4272+300.276+70.1705+298.553C70.0605+297.966+70.1797+297.379+70.528+296.793C70.8763+296.206+71.0505+295.876+71.0505+295.803C71.0505+295.729+71.0138+295.656+70.9405+295.583C70.9772+295.399+70.9955+295.216+70.9955+295.033C70.9955+293.933+70.3538+293.419+69.0705+293.493C67.8238+293.566+66.8522+294.391+66.1555+295.968C65.5322+297.324+65.2572+298.883+65.3305+300.643C65.4405+303.759+67.4938+306.253+71.4905+308.123C74.6438+309.589+76.8255+311.038+78.0355+312.468C79.7588+314.521+80.6205+317.399+80.6205+321.103Z" vectornator:shadowOpacity="0"/>
<path stroke="#d5a02a" vectornator:shadowColor="#211a16" vectornator:shadowOffset="10" stroke-width="1" fill="#e73809" stroke-linecap="round" vectornator:shadowAngle="0.414946" stroke-linejoin="round" opacity="1" vectornator:shadowRadius="10" d="M98.9355+305.263C98.6422+305.263+98.1838+305.144+97.5605+304.905C96.9372+304.667+96.4605+304.548+96.1305+304.548C95.8738+304.548+95.6172+304.603+95.3605+304.713L93.3255+305.758L93.3255+324.568C93.3255+325.264+93.7013+326.163+94.453+327.263C95.2047+328.363+95.5072+329.243+95.3605+329.903C95.1772+330.709+94.6363+331.351+93.738+331.828C92.8397+332.304+91.8772+332.543+90.8505+332.543C88.9072+332.543+87.5688+331.681+86.8355+329.958C86.6155+329.444+86.4872+327.813+86.4505+325.063C86.4138+323.229+86.4322+320.369+86.5055+316.483C86.5788+312.083+86.6155+309.296+86.6155+308.123C86.3955+308.196+86.0288+308.444+85.5155+308.865C85.0022+309.287+84.4888+309.498+83.9755+309.498C83.5722+309.498+83.0588+309.388+82.4355+309.168C79.8688+308.288+78.5855+307.389+78.5855+306.473C78.5855+306.253+78.6405+306.014+78.7505+305.758C79.0072+305.171+79.4838+304.841+80.1805+304.768C81.2438+304.621+81.8855+304.493+82.1055+304.383C82.9488+304.053+84.4888+303.264+86.7255+302.018L86.7255+297.233C86.7255+296.866+86.6247+296.38+86.423+295.775C86.2213+295.17+86.1205+294.721+86.1205+294.428C86.1205+294.098+86.2122+293.786+86.3955+293.493C87.3488+292.026+88.6322+291.293+90.2455+291.293C92.1155+291.293+93.4355+292.026+94.2055+293.493C94.4988+294.079+94.6455+294.556+94.6455+294.923C94.6455+295.363+94.4255+295.821+93.9855+296.298C93.5455+296.774+93.3255+297.214+93.3255+297.618L93.3255+300.313C93.9855+300.019+94.7188+299.524+95.5255+298.828C96.1488+298.314+96.6805+298.058+97.1205+298.058C97.3038+298.058+97.5055+298.094+97.7255+298.168C100.036+298.791+101.191+300.184+101.191+302.348C101.191+303.044+100.98+303.704+100.558+304.328C100.136+304.951+99.5955+305.263+98.9355+305.263Z" vectornator:shadowOpacity="0"/>
<path stroke="#d5a02a" vectornator:shadowColor="#211a16" vectornator:shadowOffset="10" stroke-width="1" fill="#e73809" stroke-linecap="round" vectornator:shadowAngle="0.414946" stroke-linejoin="round" opacity="1" vectornator:shadowRadius="10" d="M127.206+327.923C126.656+329.719+125.299+330.618+123.136+330.618C122.402+330.618+121.816+330.489+121.376+330.233C120.789+329.829+120.386+329.023+120.166+327.813C119.726+325.723+119.286+324.091+118.846+322.918C118.736+324.934+117.636+326.979+115.546+329.05C113.456+331.122+111.347+332.158+109.221+332.158C106.544+332.158+104.692+330.379+103.666+326.823C103.299+325.503+103.116+324.256+103.116+323.083C103.116+319.673+104.857+316.758+108.341+314.338C111.201+312.651+114.079+310.983+116.976+309.333C117.122+308.709+117.196+308.104+117.196+307.518C117.196+306.381+116.884+305.712+116.261+305.51C115.637+305.309+115.106+305.208+114.666+305.208C113.896+305.208+113.263+305.455+112.768+305.95C112.273+306.445+111.806+306.913+111.366+307.353C110.926+307.646+110.357+308.324+109.661+309.388C109.111+310.231+108.506+310.689+107.846+310.763C106.892+310.873+106.031+310.543+105.261+309.773C104.491+309.003+104.106+308.104+104.106+307.078C104.106+306.491+104.252+305.959+104.546+305.483C105.389+304.089+106.654+302.879+108.341+301.853C110.907+300.313+114.116+299.543+117.966+299.543C120.422+299.543+122.109+300.716+123.026+303.063C123.612+304.639+124.052+307.591+124.346+311.918C124.676+317.161+125.079+320.993+125.556+323.413C125.629+323.889+125.941+324.494+126.491+325.228C127.041+325.961+127.316+326.603+127.316+327.153C127.316+327.409+127.279+327.666+127.206+327.923ZM117.636+314.393C116.536+314.979+115.445+315.584+114.363+316.208C113.281+316.831+112.282+317.656+111.366+318.683C110.046+320.186+109.386+321.469+109.386+322.533C109.386+323.413+109.716+324.329+110.376+325.283C110.742+325.796+111.146+326.053+111.586+326.053C112.539+326.053+113.575+324.989+114.693+322.863C115.811+320.736+116.792+317.913+117.636+314.393Z" vectornator:shadowOpacity="0"/>
<path stroke="#d5a02a" vectornator:shadowColor="#211a16" vectornator:shadowOffset="10" stroke-width="1" fill="#e73809" stroke-linecap="round" vectornator:shadowAngle="0.414946" stroke-linejoin="round" opacity="1" vectornator:shadowRadius="10" d="M153.716+302.843C153.826+303.576+153.642+304.364+153.166+305.208C152.322+306.601+151.882+307.353+151.846+307.463C150.306+311.129+147.922+317.033+144.696+325.173C143.229+329.059+142.312+332.561+141.946+335.678C141.872+335.971+141.854+336.613+141.891+337.603C141.927+338.409+141.799+339.014+141.506+339.418C140.919+340.188+140.039+340.573+138.866+340.573C136.776+340.573+135.419+339.784+134.796+338.208C134.649+337.804+134.576+337.456+134.576+337.163C134.576+336.796+134.722+336.384+135.016+335.925C135.309+335.467+135.492+335.091+135.566+334.798L136.886+327.923L128.966+305.153C128.856+304.859+128.562+304.254+128.086+303.338C127.756+302.678+127.591+302.109+127.591+301.633C127.591+301.376+127.627+301.119+127.701+300.863C128.067+299.543+129.314+298.883+131.441+298.883C132.761+298.883+133.806+299.103+134.576+299.543C135.492+300.093+136.024+301.064+136.171+302.458C136.354+304.731+136.482+305.996+136.556+306.253L140.186+317.693L145.796+303.503C145.832+303.393+145.997+302.586+146.291+301.083C146.474+300.166+146.859+299.543+147.446+299.213C147.812+298.993+148.234+298.883+148.711+298.883C149.774+298.883+150.837+299.277+151.901+300.065C152.964+300.854+153.569+301.779+153.716+302.843Z" vectornator:shadowOpacity="0"/>
<path stroke="#d5a02a" vectornator:shadowColor="#211a16" vectornator:shadowOffset="10" stroke-width="1" fill="#e73809" stroke-linecap="round" vectornator:shadowAngle="0.414946" stroke-linejoin="round" opacity="1" vectornator:shadowRadius="10" d="M192.106+327.923C191.556+329.719+190.199+330.618+188.036+330.618C187.302+330.618+186.716+330.489+186.276+330.233C185.689+329.829+185.286+329.023+185.066+327.813C184.626+325.723+184.186+324.091+183.746+322.918C183.636+324.934+182.536+326.979+180.446+329.05C178.356+331.122+176.247+332.158+174.121+332.158C171.444+332.158+169.592+330.379+168.566+326.823C168.199+325.503+168.016+324.256+168.016+323.083C168.016+319.673+169.757+316.758+173.241+314.338C176.101+312.651+178.979+310.983+181.876+309.333C182.022+308.709+182.096+308.104+182.096+307.518C182.096+306.381+181.784+305.712+181.161+305.51C180.537+305.309+180.006+305.208+179.566+305.208C178.796+305.208+178.163+305.455+177.668+305.95C177.173+306.445+176.706+306.913+176.266+307.353C175.826+307.646+175.257+308.324+174.561+309.388C174.011+310.231+173.406+310.689+172.746+310.763C171.792+310.873+170.931+310.543+170.161+309.773C169.391+309.003+169.006+308.104+169.006+307.078C169.006+306.491+169.152+305.959+169.446+305.483C170.289+304.089+171.554+302.879+173.241+301.853C175.807+300.313+179.016+299.543+182.866+299.543C185.322+299.543+187.009+300.716+187.926+303.063C188.512+304.639+188.952+307.591+189.246+311.918C189.576+317.161+189.979+320.993+190.456+323.413C190.529+323.889+190.841+324.494+191.391+325.228C191.941+325.961+192.216+326.603+192.216+327.153C192.216+327.409+192.179+327.666+192.106+327.923ZM182.536+314.393C181.436+314.979+180.345+315.584+179.263+316.208C178.181+316.831+177.182+317.656+176.266+318.683C174.946+320.186+174.286+321.469+174.286+322.533C174.286+323.413+174.616+324.329+175.276+325.283C175.642+325.796+176.046+326.053+176.486+326.053C177.439+326.053+178.475+324.989+179.593+322.863C180.711+320.736+181.692+317.913+182.536+314.393Z" vectornator:shadowOpacity="0"/>
<path stroke="#d5a02a" vectornator:shadowColor="#211a16" vectornator:shadowOffset="10" stroke-width="1" fill="#e73809" stroke-linecap="round" vectornator:shadowAngle="0.414946" stroke-linejoin="round" opacity="1" vectornator:shadowRadius="10" d="M213.391+305.263C213.097+305.263+212.639+305.144+212.016+304.905C211.392+304.667+210.916+304.548+210.586+304.548C210.329+304.548+210.072+304.603+209.816+304.713L207.781+305.758L207.781+324.568C207.781+325.264+208.156+326.163+208.908+327.263C209.66+328.363+209.962+329.243+209.816+329.903C209.632+330.709+209.091+331.351+208.193+331.828C207.295+332.304+206.332+332.543+205.306+332.543C203.362+332.543+202.024+331.681+201.291+329.958C201.071+329.444+200.942+327.813+200.906+325.063C200.869+323.229+200.887+320.369+200.961+316.483C201.034+312.083+201.071+309.296+201.071+308.123C200.851+308.196+200.484+308.444+199.971+308.865C199.457+309.287+198.944+309.498+198.431+309.498C198.027+309.498+197.514+309.388+196.891+309.168C194.324+308.288+193.041+307.389+193.041+306.473C193.041+306.253+193.096+306.014+193.206+305.758C193.462+305.171+193.939+304.841+194.636+304.768C195.699+304.621+196.341+304.493+196.561+304.383C197.404+304.053+198.944+303.264+201.181+302.018L201.181+297.233C201.181+296.866+201.08+296.38+200.878+295.775C200.676+295.17+200.576+294.721+200.576+294.428C200.576+294.098+200.667+293.786+200.851+293.493C201.804+292.026+203.087+291.293+204.701+291.293C206.571+291.293+207.891+292.026+208.661+293.493C208.954+294.079+209.101+294.556+209.101+294.923C209.101+295.363+208.881+295.821+208.441+296.298C208.001+296.774+207.781+297.214+207.781+297.618L207.781+300.313C208.441+300.019+209.174+299.524+209.981+298.828C210.604+298.314+211.136+298.058+211.576+298.058C211.759+298.058+211.961+298.094+212.181+298.168C214.491+298.791+215.646+300.184+215.646+302.348C215.646+303.044+215.435+303.704+215.013+304.328C214.591+304.951+214.051+305.263+213.391+305.263Z" vectornator:shadowOpacity="0"/>
<path stroke="#d5a02a" vectornator:shadowColor="#211a16" vectornator:shadowOffset="10" stroke-width="1" fill="#e73809" stroke-linecap="round" vectornator:shadowAngle="0.414946" stroke-linejoin="round" opacity="1" vectornator:shadowRadius="10" d="M252.111+325.613C252.331+326.529+252.441+327.116+252.441+327.373C252.441+328.143+251.991+328.775+251.093+329.27C250.195+329.765+249.232+330.013+248.206+330.013C246.629+330.013+245.621+329.426+245.181+328.253C244.997+327.776+244.906+327.373+244.906+327.043C244.906+326.566+245.116+326.053+245.538+325.503C245.96+324.953+246.171+324.439+246.171+323.963C246.611+322.056+246.831+319.306+246.831+315.713C246.831+309.479+246.391+306.289+245.511+306.143C244.851+306.033+243.787+307.078+242.321+309.278C240.781+311.588+239.497+314.173+238.471+317.033C237.261+320.406+236.747+323.376+236.931+325.943C236.821+326.163+236.766+326.383+236.766+326.603C236.766+326.933+236.912+327.4+237.206+328.005C237.499+328.61+237.646+329.096+237.646+329.463C237.646+329.829+237.517+330.178+237.261+330.508C236.271+331.938+235.281+332.653+234.291+332.653C233.264+332.653+232.274+331.846+231.321+330.233C230.771+329.279+230.496+323.798+230.496+313.788C230.496+310.121+230.587+301.779+230.771+288.763C230.771+288.543+230.752+288.204+230.716+287.745C230.679+287.287+230.661+286.929+230.661+286.673C230.697+286.306+230.807+285.976+230.991+285.683C231.394+284.913+232.256+284.528+233.576+284.528C234.749+284.528+235.821+284.839+236.793+285.463C237.765+286.086+238.141+286.819+237.921+287.663C237.884+287.883+237.71+288.139+237.398+288.433C237.086+288.726+236.931+289.019+236.931+289.313L236.931+307.023C239.021+302.329+242.101+299.836+246.171+299.543C248.371+299.396+250.131+301.046+251.451+304.493C252.661+307.646+253.266+311.514+253.266+316.098C253.266+319.618+252.881+322.789+252.111+325.613Z" vectornator:shadowOpacity="0"/>
<path stroke="#d5a02a" vectornator:shadowColor="#211a16" vectornator:shadowOffset="10" stroke-width="1" fill="#e73809" stroke-linecap="round" vectornator:shadowAngle="0.414946" stroke-linejoin="round" opacity="1" vectornator:shadowRadius="10" d="M275.101+301.853C277.557+304.346+278.786+308.544+278.786+314.448C278.786+319.031+277.924+322.936+276.201+326.163C274.257+329.793+271.581+331.608+268.171+331.608C264.797+331.608+262.194+329.976+260.361+326.713C258.747+323.853+257.941+320.223+257.941+315.823C257.941+311.936+258.564+308.453+259.811+305.373C261.131+302.073+262.817+300.129+264.871+299.543C265.934+299.249+267.034+299.103+268.171+299.103C270.994+299.103+273.304+300.019+275.101+301.853ZM268.831+304.493C267.621+304.383+266.576+305.519+265.696+307.903C264.926+310.066+264.541+312.339+264.541+314.723C264.541+318.169+264.687+320.608+264.981+322.038C265.494+324.604+266.557+326.016+268.171+326.273C269.197+326.419+270.151+325.008+271.031+322.038C271.874+319.178+272.296+316.116+272.296+312.853C272.296+307.499+271.141+304.713+268.831+304.493Z" vectornator:shadowOpacity="0"/>
<path stroke="#d5a02a" vectornator:shadowColor="#211a16" vectornator:shadowOffset="10" stroke-width="1" fill="#e73809" stroke-linecap="round" vectornator:shadowAngle="0.414946" stroke-linejoin="round" opacity="1" vectornator:shadowRadius="10" d="M319.651+330.233C319.174+331.589+318.092+332.268+316.406+332.268C314.279+332.268+312.702+331.534+311.676+330.068C311.126+329.261+310.851+326.493+310.851+321.763C310.851+321.066+310.851+320.094+310.851+318.848C310.887+317.564+310.906+316.666+310.906+316.153C310.906+313.586+310.777+312.266+310.521+312.193C309.971+311.973+308.101+317.106+304.911+327.593C304.911+327.629+304.837+328.509+304.691+330.233C304.617+331.296+304.251+332.011+303.591+332.378C303.114+332.634+302.582+332.763+301.996+332.763C300.932+332.763+299.906+332.414+298.916+331.718C297.926+331.021+297.302+330.196+297.046+329.243C296.679+327.886+296.514+325.209+296.551+321.213C296.624+315.383+296.661+312.578+296.661+312.798C296.624+311.258+296.514+310.469+296.331+310.433C295.487+311.826+294.754+313.164+294.131+314.448C292.627+317.528+291.766+320.094+291.546+322.148C291.362+322.588+291.344+323.449+291.491+324.733C291.637+325.833+291.472+326.584+290.996+326.988C290.519+327.391+289.877+327.593+289.071+327.593C288.191+327.593+287.301+327.345+286.403+326.85C285.505+326.355+284.854+325.796+284.451+325.173C283.864+324.256+283.534+321.579+283.461+317.143C283.461+312.816+283.461+308.489+283.461+304.163C283.424+303.796+283.277+303.283+283.021+302.623C282.764+301.963+282.636+301.468+282.636+301.138C282.636+300.808+282.727+300.496+282.911+300.203C283.387+299.469+284.597+299.103+286.541+299.103C288.924+299.103+290.354+299.689+290.831+300.863C290.941+301.119+290.996+301.376+290.996+301.633C290.996+301.963+290.821+302.439+290.473+303.063C290.125+303.686+289.951+304.199+289.951+304.603L289.951+310.873C291.051+308.563+292.499+305.629+294.296+302.073C294.516+301.596+294.726+301.119+294.928+300.643C295.13+300.166+295.432+299.744+295.836+299.378C296.239+299.011+296.917+298.828+297.871+298.828C299.337+298.828+300.813+299.158+302.298+299.818C303.783+300.478+304.544+301.266+304.581+302.183C304.617+303.136+304.48+303.86+304.168+304.355C303.856+304.85+303.701+305.263+303.701+305.593L303.591+317.473C304.177+316.153+305.241+313.036+306.781+308.123C307.991+304.383+308.907+302.293+309.531+301.853C310.337+301.266+311.529+300.973+313.106+300.973C316.039+300.973+317.561+301.816+317.671+303.503C317.634+307.976+317.634+315.456+317.671+325.943C317.671+326.346+318.037+326.832+318.771+327.4C319.504+327.969+319.871+328.564+319.871+329.188C319.871+329.481+319.797+329.829+319.651+330.233Z" vectornator:shadowOpacity="0"/>
<path stroke="#d5a02a" vectornator:shadowColor="#211a16" vectornator:shadowOffset="10" stroke-width="1" fill="#e73809" stroke-linecap="round" vectornator:shadowAngle="0.414946" stroke-linejoin="round" opacity="1" vectornator:shadowRadius="10" d="M341.871+324.458C341.577+325.851+340.587+327.336+338.901+328.913C338.644+329.316+337.636+329.848+335.876+330.508C333.859+331.278+332.117+331.608+330.651+331.498C327.901+331.314+325.737+329.738+324.161+326.768C322.731+324.018+322.016+320.644+322.016+316.648C322.016+312.321+322.822+308.526+324.436+305.263C326.232+301.669+328.634+299.653+331.641+299.213C332.227+299.139+332.796+299.103+333.346+299.103C337.709+299.103+340.111+301.779+340.551+307.133C340.771+309.589+339.799+312.266+337.636+315.163C335.289+318.353+332.282+320.589+328.616+321.873C329.019+323.339+329.331+324.293+329.551+324.733C330.064+325.649+330.761+326.108+331.641+326.108C332.484+326.108+333.382+325.778+334.336+325.118C335.142+324.568+335.692+324.036+335.986+323.523C336.132+323.449+336.279+323.037+336.426+322.285C336.572+321.534+336.957+320.993+337.581+320.663C337.801+320.553+338.057+320.498+338.351+320.498C339.231+320.498+340.083+320.929+340.908+321.79C341.733+322.652+342.054+323.541+341.871+324.458ZM333.236+305.098C331.769+305.098+330.577+306.143+329.661+308.233C328.451+311.019+327.956+313.769+328.176+316.483C329.899+315.933+331.494+314.649+332.961+312.633C334.427+310.616+335.161+308.819+335.161+307.243C335.161+305.813+334.519+305.098+333.236+305.098Z" vectornator:shadowOpacity="0"/>
</g>
</g>
</g>
</svg>
