<?xml version="1.0" encoding="UTF-8" standalone="no"?> <!-- Created with Vectornator for iOS (http://vectornator.io/) --><!DOCTYPE svg PUBLIC "-//W3C//DTD SVG 1.1//EN" "http://www.w3.org/Graphics/SVG/1.1/DTD/svg11.dtd">
<svg style="fill-rule:evenodd;clip-rule:evenodd;stroke-linecap:round;stroke-linejoin:round;" xmlns:vectornator="http://vectornator.io" xmlns:xlink="http://www.w3.org/1999/xlink" xmlns="http://www.w3.org/2000/svg" xml:space="preserve" version="1.1" viewBox="0 0 400 400">
<metadata>
<vectornator:setting key="DisplayWhiteBackground" value="0"/>
<vectornator:setting key="RulersVisible" value="1"/>
<vectornator:setting key="GridSpacing" value="36"/>
<vectornator:setting key="Units" value="Pixels"/>
<vectornator:setting key="DynamicGuides" value="0"/>
<vectornator:setting key="SnapToPoints" value="0"/>
<vectornator:setting key="CMYKEnabledKey" value="0"/>
<vectornator:setting key="SnapToGrid" value="0"/>
<vectornator:setting key="SnapToGuides" value="1"/>
<vectornator:setting key="ShowGrid" value="0"/>
<vectornator:setting key="SnapToEdges" value="0"/>
</metadata>
<defs/>
<g id="Layer 1" vectornator:layerName="Layer 1">
<path stroke="#3d3a3a" stroke-opacity="0" stroke-width="1" d="M236.813+101.24L337.218+63.1418" fill="#cd6d1d" stroke-linecap="butt" opacity="1" stroke-linejoin="miter"/>
<path stroke="#3d3a3a" stroke-opacity="0" stroke-width="1" d="M316.22+55.2502" fill="#cd6d1d" stroke-linecap="butt" opacity="1" stroke-linejoin="miter"/>
<path stroke="#3d3a3a" stroke-opacity="0" stroke-width="3" d="M2.71413+198.72C2.71413+89.3403+90.7502+0.670374+199.348+0.670374C307.946+0.670374+395.982+89.3403+395.982+198.72C395.982+308.1+307.946+396.77+199.348+396.77C90.7502+396.77+2.71413+308.1+2.71413+198.72Z" fill="#bcd0cf" stroke-linecap="round" opacity="1" stroke-linejoin="round"/>
<path stroke="#3d3a3a" stroke-opacity="0.00399134" stroke-width="1" d="M76.0131+156.626C76.0131+144.992+85.0131+135.56+96.1152+135.56C107.217+135.56+116.217+144.992+116.217+156.626C116.217+168.26+107.217+177.691+96.1152+177.691C85.0131+177.691+76.0131+168.26+76.0131+156.626Z" fill="#f0c5a1" stroke-linecap="butt" opacity="1" stroke-linejoin="miter"/>
<path stroke="#3d3a3a" stroke-opacity="0.00399134" stroke-width="1" d="M288.839+156.281C288.839+144.647+297.839+135.215+308.941+135.215C320.043+135.215+329.043+144.647+329.043+156.281C329.043+167.915+320.043+177.346+308.941+177.346C297.839+177.346+288.839+167.915+288.839+156.281Z" fill="#f0c5a1" stroke-linecap="butt" opacity="1" stroke-linejoin="miter"/>
<path stroke="#3d3a3a" stroke-opacity="0" stroke-width="1" d="M99.0903+334.013C99.0903+290.917+133.96+249.291+203.094+249.291C272.228+249.291+309.848+293.254+309.848+336.35C309.848+379.447+271.313+395.974+202.179+395.974C133.044+395.974+99.0903+377.109+99.0903+334.013Z" fill="#117890" stroke-linecap="butt" opacity="1" stroke-linejoin="miter"/>
<path stroke="#3d3a3a" stroke-opacity="0" stroke-width="1" d="M159.412+276.498C159.412+257.729+178.337+242.515+201.683+242.515C225.029+242.515+243.955+257.729+243.955+276.498C243.955+295.266+225.029+310.48+201.683+310.48C178.337+310.48+159.412+295.266+159.412+276.498Z" fill="#e0b896" stroke-linecap="butt" opacity="1" stroke-linejoin="miter"/>
<path stroke="#3d3a3a" stroke-opacity="0.00399134" stroke-width="1" d="M93.0613+154.48C93.0613+94.6201+140.949+46.094+200.021+46.094C259.093+46.094+306.98+94.6201+306.98+154.48C306.98+214.34+259.093+262.866+200.021+262.866C140.949+262.866+93.0613+214.34+93.0613+154.48Z" fill="#f0c5a1" stroke-linecap="butt" opacity="1" stroke-linejoin="miter"/>
<path stroke="#3d3a3a" stroke-opacity="0" stroke-width="1" d="M236.851+116.738C304.154+158.486+304.744+143.366+304.744+143.366C313.166+132.598+301.123+146.367+308.286+149.964C313.818+152.742+338.957+148.63+329.869+147.248C292.482+141.56+335.548+138.447+331.866+133.997C300.031+95.5309+323.03+123.62+325.106+122.88C325.843+122.617+316.846+80.3482+316.846+80.3482C309.368+76.8829+299.358+52.9837+295.107+48.6574C272.128+25.2689+247.211+31.3126+247.211+31.3126C200.061+26.5979+169.069+31.3733+169.069+31.3733C126.758+46.3141+120.28+57.1681+120.28+57.1681C87.5651+83.4388+95.0839+86.952+95.0839+86.952C83.4062+108.913+83.8692+107.415+83.8692+107.415C73.0896+131.224+82.3251+133.344+82.3251+133.344C87.5057+154.185+87.5057+154.185+87.5057+154.185C87.5057+154.185+129.777+84.9042+196.422+122.088C197.541+122.713+235.739+116.048+236.851+116.738Z" fill="#cd6d1d" stroke-linecap="butt" opacity="1" stroke-linejoin="miter"/>
<path stroke="#3d3a3a" stroke-opacity="0" stroke-width="1" d="M235.89+100.401L336.295+62.3028" fill="#cd6d1d" stroke-linecap="butt" opacity="1" stroke-linejoin="miter"/>
<path stroke="#3d3a3a" stroke-opacity="0" stroke-width="1" d="M315.297+54.4112" fill="#cd6d1d" stroke-linecap="butt" opacity="1" stroke-linejoin="miter"/>
<path stroke="#3d3a3a" stroke-opacity="0" stroke-width="1" d="M238.399+185.26C244.437+173.866+259.084+171.131+271.115+179.151C283.146+187.171+288.005+202.91+281.968+214.304C275.93+225.697+261.283+228.432+249.252+220.412C237.22+212.392+232.362+196.654+238.399+185.26" fill="#e7c1a2" stroke-linecap="butt" opacity="1" stroke-linejoin="miter"/>
<path stroke="#ab6126" stroke-width="2" d="M121.484+151.912C120.879+150.517+120.568+149.061+120.59+147.568C120.729+138.01+134.456+130.528+151.249+130.856C168.042+131.184+181.543+139.198+181.403+148.756" fill="#e7c1a2" stroke-linecap="butt" fill-opacity="0" opacity="1" stroke-linejoin="miter"/>
<path stroke="#3d3a3a" stroke-width="3" d="M137.704+159.841C137.105+158.766+136.704+157.616+136.532+156.405C135.43+148.654+144.116+141.36+155.934+140.114C167.752+138.868+178.226+144.141+179.328+151.891" fill="#f0e6de" stroke-linecap="butt" opacity="1" stroke-linejoin="miter"/>
<path stroke="#ab6126" stroke-width="2" d="M220.525+154.657C219.93+153.229+219.635+151.754+219.681+150.259C219.972+140.685+234.09+133.875+251.213+135.047C268.336+136.219+281.981+144.93+281.69+154.503" fill="#e7c1a2" stroke-linecap="butt" fill-opacity="0" opacity="1" stroke-linejoin="miter"/>
<path stroke="#3d3a3a" stroke-width="3" d="M227.214+153.151C227.245+152.002+227.49+150.876+227.968+149.798C231.032+142.905+242.502+140.628+253.588+144.712C264.675+148.796+271.179+157.695+268.116+164.588" fill="#e8dfd8" stroke-linecap="butt" opacity="1" stroke-linejoin="miter"/>
<path stroke="#d79b53" stroke-width="2" d="M230.721+201.952C231.157+202.646+231.282+203.37+231.058+204.11C229.624+208.846+214.446+212.472+197.156+212.211C179.867+211.949+167.013+207.897+168.447+203.161" fill="#e7c1a2" stroke-linecap="butt" fill-opacity="0" opacity="1" stroke-linejoin="miter"/>
<path stroke="#3d3a3a" stroke-opacity="0" stroke-width="1" d="M144.604+172.976C157.47+173.833+165.949+186.086+163.542+200.344C161.136+214.601+148.754+225.465+135.888+224.607C123.022+223.75+114.543+211.497+116.95+197.239C119.357+182.982+131.738+172.118+144.604+172.976" fill="#e7c1a2" stroke-linecap="butt" opacity="1" stroke-linejoin="miter"/>
<path stroke="#d7a271" stroke-width="1" d="M184.921+174.363C184.921+172.373+186.732+170.759+188.965+170.759C191.199+170.759+193.01+172.373+193.01+174.363C193.01+176.354+191.199+177.968+188.965+177.968C186.732+177.968+184.921+176.354+184.921+174.363Z" fill="#e0b896" stroke-linecap="butt" opacity="1" stroke-linejoin="miter"/>
<path stroke="#d79b53" stroke-width="2" d="M179.181+174.628C178.959+173.406+178.917+172.139+179.077+170.847C180.097+162.578+188.972+156.438+198.898+157.132C208.824+157.826+216.044+165.091+215.024+173.36" fill="#e7c1a2" stroke-linecap="butt" fill-opacity="0" opacity="1" stroke-linejoin="miter"/>
<path stroke="#d7a271" stroke-width="1" d="M201.776+174.842C201.776+172.851+203.587+171.237+205.82+171.237C208.054+171.237+209.865+172.851+209.865+174.842C209.865+176.832+208.054+178.446+205.82+178.446C203.587+178.446+201.776+176.832+201.776+174.842Z" fill="#e0b896" stroke-linecap="butt" opacity="1" stroke-linejoin="miter"/>
<path stroke="#d79b53" stroke-width="2" d="M217.31+219.809C217.525+220.341+217.587+220.895+217.476+221.461C216.768+225.088+209.27+227.866+200.73+227.665C192.19+227.465+185.84+224.362+186.548+220.735" fill="#e7c1a2" stroke-linecap="butt" fill-opacity="0" opacity="1" stroke-linejoin="miter"/>
<path stroke="#3d3a3a" stroke-opacity="0" stroke-width="3" d="M242.615+153.091C242.615+149.524+245.798+146.632+249.723+146.632C253.649+146.632+256.832+149.524+256.832+153.091C256.832+156.659+253.649+159.55+249.723+159.55C245.798+159.55+242.615+156.659+242.615+153.091Z" fill="#668297" stroke-linecap="butt" opacity="1" stroke-linejoin="miter"/>
<path stroke="#3d3a3a" stroke-opacity="0.00399134" stroke-width="1" d="M299.773+371.013L281.543+383.203L267.798+319.072L270.583+306.432L281.177+298.999L291.074+295.517L302.636+298.999L322.657+350.039L317.87+355.072L312.06+360.686L299.773+371.013Z" fill="#f0c5a1" stroke-linecap="butt" opacity="1" stroke-linejoin="miter"/>
<path stroke="#3d3a3a" stroke-opacity="0.00399134" stroke-width="1" d="M107.682+372.525L127.662+380.815L139.657+320.584L136.872+307.944L126.278+300.511L116.381+297.029L104.82+300.511L83.1251+353.308L89.0011+359.774L96.76+365.503L107.682+372.525Z" fill="#f0c5a1" stroke-linecap="butt" opacity="1" stroke-linejoin="miter"/>
<path stroke="#3d3a3a" stroke-opacity="0" stroke-width="3" d="M149.399+150.758C149.399+147.191+152.582+144.299+156.507+144.299C160.433+144.299+163.616+147.191+163.616+150.758C163.616+154.325+160.433+157.217+156.507+157.217C152.582+157.217+149.399+154.325+149.399+150.758Z" fill="#668297" stroke-linecap="butt" opacity="1" stroke-linejoin="miter"/>
</g>
</svg>
